<svg id="svg" version="1.1" xmlns="http://www.w3.org/2000/svg" xmlns:xlink="http://www.w3.org/1999/xlink" width="400" height="400" viewBox="0, 0, 400,400"><g id="svgg"><path id="path0" d="M192.400 129.278 C 171.959 132.747,151.606 144.740,138.599 160.983 L 136.691 163.365 142.850 169.383 C 160.034 186.171,180.797 196.640,197.200 196.787 L 198.600 196.800 198.600 219.500 L 198.600 242.200 200.800 242.200 L 203.000 242.200 203.000 219.500 L 203.000 196.800 204.554 196.800 C 213.001 196.800,229.039 191.387,238.458 185.358 C 248.621 178.852,262.754 165.904,262.791 163.066 C 262.802 162.143,250.613 149.914,246.008 146.230 C 236.454 138.586,224.086 132.196,215.353 130.392 C 207.985 128.870,197.737 128.373,192.400 129.278 M211.491 135.808 C 217.106 136.986,221.638 138.516,227.199 141.110 C 229.046 141.972,235.373 145.793,237.176 147.136 C 244.712 152.750,254.800 161.918,254.800 163.153 C 254.800 164.412,245.272 173.140,239.200 177.443 C 210.003 198.134,177.373 194.169,148.334 166.400 C 144.309 162.551,144.143 163.042,151.805 156.182 C 170.575 139.378,192.628 131.850,211.491 135.808 M197.200 142.054 C 186.213 144.301,179.200 152.383,179.200 162.800 C 179.200 181.121,201.732 190.432,214.609 177.432 C 226.749 165.176,220.297 145.569,203.000 142.154 C 199.880 141.538,199.736 141.535,197.200 142.054 M204.000 154.713 C 213.269 159.293,208.026 174.288,198.100 171.587 C 187.789 168.782,189.392 153.626,200.000 153.626 C 201.152 153.626,202.592 154.017,204.000 154.713 M166.563 197.444 C 162.663 198.827,160.800 202.161,160.800 207.755 C 160.800 213.399,162.336 215.838,170.095 222.520 C 174.772 226.548,176.088 229.353,175.412 233.857 C 174.359 240.878,164.800 239.799,164.800 232.659 C 164.800 229.421,164.640 229.200,162.298 229.200 L 160.281 229.200 160.519 232.571 C 161.006 239.467,163.902 242.400,170.223 242.400 C 181.252 242.400,183.957 229.568,174.761 220.875 C 165.623 212.237,165.060 211.466,165.076 207.600 C 165.110 199.006,174.865 198.276,175.874 206.792 L 176.111 208.800 178.056 208.800 L 180.000 208.800 180.000 206.815 C 180.000 199.573,173.446 195.002,166.563 197.444 M228.455 197.348 C 226.403 198.090,224.022 200.301,223.063 202.354 C 221.863 204.920,221.715 234.353,222.888 236.852 C 226.495 244.530,237.666 244.530,241.074 236.852 C 241.595 235.678,241.726 233.791,241.759 227.000 L 241.800 218.600 237.400 218.600 L 233.000 218.600 233.000 220.400 L 233.000 222.200 235.300 222.320 L 237.600 222.440 237.600 228.171 C 237.600 236.259,236.470 238.400,232.200 238.400 C 226.888 238.400,226.600 237.444,226.600 219.800 C 226.600 203.533,226.695 202.955,229.600 201.498 C 233.834 199.375,237.243 202.136,237.594 207.973 L 237.800 211.400 239.962 211.523 L 242.124 211.646 241.878 207.911 C 241.315 199.328,235.540 194.784,228.455 197.348 M97.784 197.700 C 97.678 197.975,97.639 208.100,97.696 220.200 L 97.800 242.200 98.948 242.331 C 99.580 242.403,100.525 242.355,101.048 242.224 L 102.000 241.985 102.000 219.835 C 102.000 195.292,102.223 197.200,99.355 197.200 C 98.596 197.200,97.889 197.425,97.784 197.700 M121.700 197.465 C 121.308 197.623,121.200 202.473,121.200 219.826 L 121.200 241.985 122.200 242.236 C 122.750 242.374,123.650 242.374,124.200 242.236 L 125.200 241.985 125.206 224.892 C 125.212 209.555,125.451 205.075,126.150 207.211 C 126.256 207.535,126.698 208.880,127.133 210.200 C 127.567 211.520,128.851 215.570,129.986 219.200 C 131.121 222.830,132.208 226.250,132.401 226.800 C 133.356 229.515,136.800 240.728,136.800 241.122 C 136.800 242.130,139.716 242.791,141.367 242.157 C 142.333 241.786,142.333 197.814,141.367 197.443 C 138.028 196.161,138.000 196.294,138.000 213.280 C 138.000 226.453,137.923 228.400,137.400 228.400 C 137.070 228.400,136.800 228.172,136.800 227.894 C 136.800 227.615,136.100 225.230,135.244 222.594 C 134.388 219.957,132.571 214.290,131.207 210.000 C 126.689 195.798,127.422 197.191,124.486 197.232 C 123.229 197.249,121.975 197.354,121.700 197.465 M260.984 197.700 C 260.878 197.975,260.839 208.100,260.896 220.200 L 261.000 242.200 262.148 242.331 C 262.780 242.403,263.725 242.355,264.248 242.224 L 265.200 241.985 265.206 232.292 C 265.214 220.490,264.611 221.550,271.231 221.688 L 276.600 221.800 276.800 232.000 L 277.000 242.200 279.200 242.200 L 281.400 242.200 281.511 220.600 C 281.640 195.302,281.829 197.121,279.087 197.280 L 277.000 197.400 276.893 207.511 L 276.786 217.622 271.093 217.511 L 265.400 217.400 265.293 207.619 C 265.214 200.406,265.056 197.756,264.693 197.525 C 263.902 197.023,261.194 197.151,260.984 197.700 M299.287 197.673 C 298.560 198.400,298.665 201.063,299.433 201.357 C 299.781 201.491,301.669 201.600,303.629 201.600 L 307.193 201.600 307.296 221.900 L 307.400 242.200 309.600 242.200 L 311.800 242.200 311.904 221.914 L 312.007 201.629 315.904 201.514 L 319.800 201.400 319.800 199.400 L 319.800 197.400 309.787 197.293 C 302.334 197.214,299.649 197.311,299.287 197.673 M258.667 249.067 C 258.226 249.507,258.354 258.800,258.800 258.800 C 259.020 258.800,259.200 257.810,259.200 256.600 C 259.200 252.505,261.784 253.593,262.523 258.000 C 262.633 258.651,262.709 258.442,262.743 257.400 C 262.772 256.520,262.538 255.308,262.225 254.707 C 261.894 254.072,261.811 253.517,262.027 253.383 C 262.232 253.256,262.388 252.848,262.373 252.476 C 262.352 251.963,262.241 252.017,261.912 252.700 C 260.990 254.611,259.200 253.914,259.200 251.643 C 259.200 248.887,260.891 248.385,262.213 250.747 L 262.803 251.800 262.546 250.600 C 262.405 249.940,262.214 249.265,262.121 249.100 C 261.913 248.729,259.032 248.701,258.667 249.067 M267.680 249.280 C 266.660 250.300,267.128 252.200,268.826 253.931 C 270.163 255.295,270.429 255.821,270.326 256.895 C 270.163 258.584,268.410 259.001,267.697 257.520 C 267.395 256.893,267.246 256.803,267.227 257.238 C 267.171 258.561,268.726 259.446,269.927 258.774 C 271.683 257.793,271.574 256.110,269.617 253.972 C 267.507 251.669,267.075 249.200,268.781 249.200 C 269.589 249.200,270.400 249.722,270.400 250.243 C 270.400 250.549,270.580 250.800,270.800 250.800 C 271.307 250.800,271.304 250.541,270.786 249.574 C 270.317 248.697,268.441 248.519,267.680 249.280 M272.800 253.776 C 272.800 256.859,272.955 258.800,273.200 258.800 C 273.420 258.800,273.600 257.900,273.600 256.800 C 273.600 254.110,274.457 254.143,275.732 256.883 C 276.111 257.699,276.595 258.473,276.806 258.604 C 277.263 258.886,276.928 257.897,275.993 256.200 C 274.795 254.026,274.762 253.106,275.816 251.251 C 276.865 249.404,276.994 249.033,276.474 249.354 C 276.295 249.465,275.727 250.375,275.212 251.378 C 274.008 253.718,273.600 253.679,273.600 251.224 C 273.600 250.137,273.420 249.136,273.200 249.000 C 272.941 248.840,272.800 250.529,272.800 253.776 M281.688 253.900 L 281.800 259.000 283.500 259.123 C 284.506 259.196,285.200 259.073,285.200 258.823 C 285.200 258.590,284.570 258.400,283.800 258.400 L 282.400 258.400 282.400 256.227 C 282.400 254.163,282.455 254.045,283.500 253.887 L 284.600 253.720 283.479 253.660 C 281.536 253.556,282.004 249.505,284.000 249.153 C 285.312 248.921,285.280 248.902,283.488 248.853 L 281.576 248.800 281.688 253.900 M287.067 249.067 C 286.508 249.625,286.834 251.029,287.639 251.531 C 288.776 252.242,288.967 251.918,288.409 250.227 C 287.948 248.830,287.602 248.531,287.067 249.067 M293.590 249.826 C 293.092 251.137,293.083 256.440,293.577 257.740 C 294.570 260.351,297.600 258.855,297.600 255.754 C 297.600 253.966,297.040 253.200,296.285 253.955 C 295.958 254.282,295.973 254.400,296.342 254.400 C 297.382 254.400,296.734 258.181,295.668 258.332 C 293.594 258.626,292.509 251.511,294.371 249.826 C 295.421 248.876,296.800 249.331,296.800 250.627 C 296.800 251.162,296.980 251.600,297.200 251.600 C 297.869 251.600,297.647 250.166,296.869 249.462 C 295.719 248.422,294.054 248.607,293.590 249.826 M299.200 253.776 C 299.200 256.859,299.355 258.800,299.600 258.800 C 299.844 258.800,300.000 256.941,300.000 254.024 C 300.000 251.271,299.831 249.142,299.600 249.000 C 299.341 248.840,299.200 250.529,299.200 253.776 M301.669 253.900 C 301.735 258.818,301.746 258.877,301.969 255.559 C 302.106 253.516,302.427 251.846,302.759 251.447 C 303.196 250.923,303.219 250.560,302.867 249.788 C 301.915 247.698,301.600 248.781,301.669 253.900 M308.088 253.900 L 308.200 259.000 309.900 259.123 C 310.906 259.196,311.600 259.073,311.600 258.823 C 311.600 258.590,310.970 258.400,310.200 258.400 L 308.800 258.400 308.800 256.227 C 308.800 254.163,308.855 254.045,309.900 253.887 L 311.000 253.720 309.879 253.660 C 307.936 253.556,308.404 249.505,310.400 249.153 C 311.712 248.921,311.680 248.902,309.888 248.853 L 307.976 248.800 308.088 253.900 M264.400 254.000 C 264.400 256.933,264.556 258.800,264.800 258.800 C 265.044 258.800,265.200 256.933,265.200 254.000 C 265.200 251.067,265.044 249.200,264.800 249.200 C 264.556 249.200,264.400 251.067,264.400 254.000 M305.587 252.500 C 305.576 255.478,305.518 255.725,304.991 255.029 C 304.071 253.813,303.824 254.613,304.482 256.674 C 305.564 260.065,306.000 259.306,306.000 254.033 C 306.000 251.375,305.910 249.200,305.800 249.200 C 305.690 249.200,305.594 250.685,305.587 252.500 M303.206 252.476 C 303.218 253.481,303.987 254.308,303.994 253.324 C 303.997 252.842,303.820 252.336,303.600 252.200 C 303.380 252.064,303.203 252.188,303.206 252.476 M288.806 253.076 C 288.803 253.558,288.980 254.064,289.200 254.200 C 289.709 254.515,289.709 253.588,289.200 252.800 C 288.885 252.312,288.811 252.364,288.806 253.076 M289.805 255.192 C 289.499 255.687,290.412 258.800,290.863 258.800 C 291.251 258.800,291.318 256.374,290.957 255.433 C 290.683 254.717,290.165 254.609,289.805 255.192 " stroke="none" fill="#f5f6f7" fill-rule="evenodd"></path><path id="path1" d="M0.000 200.000 L 0.000 400.000 200.000 400.000 L 400.000 400.000 400.000 200.000 L 400.000 0.000 200.000 0.000 L 0.000 0.000 0.000 200.000 M214.600 129.550 C 229.780 133.083,242.867 141.207,257.700 156.303 C 264.209 162.928,264.118 162.753,262.347 165.240 C 251.032 181.129,222.576 197.183,205.700 197.198 L 204.000 197.200 204.000 219.551 C 204.000 244.872,204.293 242.916,200.534 242.721 L 198.200 242.600 198.097 219.960 L 197.993 197.320 194.297 197.070 C 178.125 195.976,160.690 186.985,143.158 170.699 C 134.623 162.770,134.634 163.801,143.000 155.380 C 157.544 140.739,172.461 132.397,190.200 128.984 C 194.700 128.118,209.968 128.472,214.600 129.550 M190.800 136.418 C 176.133 139.317,162.796 146.583,150.100 158.592 C 145.141 163.283,145.163 162.814,149.700 166.829 C 183.327 196.590,215.671 197.795,246.919 170.452 C 255.476 162.965,255.351 163.696,249.075 157.836 C 229.667 139.714,210.245 132.576,190.800 136.418 M204.708 141.803 C 218.946 145.160,225.836 161.129,218.427 173.601 C 208.624 190.102,183.966 186.435,179.191 167.766 C 175.301 152.553,189.410 138.196,204.708 141.803 M196.600 155.064 C 190.956 158.034,189.920 165.037,194.526 169.082 C 202.354 175.955,213.250 164.620,206.079 157.063 C 203.666 154.521,199.358 153.612,196.600 155.064 M175.022 197.154 C 178.426 198.701,181.073 203.635,180.731 207.800 L 180.600 209.400 178.000 209.400 L 175.400 209.400 175.127 206.928 C 174.246 198.935,165.752 199.731,165.820 207.800 C 165.847 210.950,166.640 212.385,170.132 215.600 C 179.837 224.535,180.606 225.728,180.588 231.800 C 180.565 239.511,177.333 242.994,170.200 242.994 C 163.411 242.994,160.418 239.940,159.729 232.310 C 159.426 228.955,159.800 228.400,162.369 228.400 C 164.763 228.400,165.200 228.878,165.200 231.493 C 165.200 235.575,166.780 237.676,169.882 237.718 C 176.556 237.807,176.920 229.720,170.509 223.821 C 160.578 214.683,159.270 212.307,160.176 205.053 C 161.028 198.233,168.567 194.222,175.022 197.154 M237.096 197.384 C 240.660 199.043,242.365 202.512,242.517 208.419 C 242.611 212.031,242.381 212.384,239.933 212.394 C 237.578 212.404,237.200 212.108,237.198 210.257 C 237.188 203.238,234.077 199.869,229.754 202.197 C 227.269 203.535,227.154 204.383,227.285 220.471 C 227.415 236.589,227.385 236.434,230.614 237.514 C 235.114 239.020,236.919 236.560,236.966 228.850 L 237.000 223.400 235.208 223.272 C 232.579 223.085,231.554 221.071,232.643 218.233 C 233.078 217.099,241.821 217.319,242.442 218.479 C 243.283 220.051,242.672 234.100,241.644 236.816 C 238.404 245.377,225.590 245.434,222.397 236.901 C 221.458 234.391,221.167 206.577,222.047 203.408 C 223.718 197.385,230.913 194.505,237.096 197.384 M102.548 197.700 C 103.044 199.552,102.828 241.812,102.320 242.320 C 102.056 242.584,100.991 242.800,99.953 242.800 C 96.489 242.800,96.800 245.095,96.800 219.557 L 96.800 196.800 99.553 196.800 C 102.071 196.800,102.327 196.877,102.548 197.700 M132.362 211.500 C 134.910 219.475,137.131 226.000,137.297 226.000 C 137.464 226.000,137.600 219.430,137.600 211.400 L 137.600 196.800 139.957 196.800 C 143.047 196.800,142.800 194.788,142.800 219.953 C 142.800 244.512,143.042 242.800,139.569 242.800 C 136.574 242.800,137.167 244.040,131.327 225.549 L 126.200 209.315 126.095 225.522 C 126.024 236.675,125.852 241.896,125.546 242.264 C 124.991 242.934,121.536 242.976,120.880 242.320 C 120.368 241.808,120.146 198.728,120.649 197.418 C 120.856 196.878,121.465 196.789,124.313 196.885 L 127.729 197.000 132.362 211.500 M265.748 197.700 C 265.881 198.195,265.992 202.785,265.995 207.900 L 266.000 217.200 271.000 217.200 L 276.000 217.200 276.005 207.900 C 276.012 196.053,275.818 196.736,279.151 196.883 L 281.800 197.000 281.800 219.800 L 281.800 242.600 279.466 242.721 C 275.857 242.908,276.000 243.343,276.000 232.151 L 276.000 222.400 271.000 222.400 L 266.000 222.400 266.000 232.120 C 266.000 243.024,266.060 242.800,263.153 242.800 C 259.689 242.800,260.000 245.095,260.000 219.557 L 260.000 196.800 262.753 196.800 C 265.271 196.800,265.527 196.877,265.748 197.700 M320.719 199.300 L 320.600 201.800 316.504 201.914 L 312.407 202.028 312.304 222.314 L 312.200 242.600 309.600 242.600 L 307.000 242.600 306.791 222.400 C 306.676 211.290,306.541 202.162,306.491 202.114 C 306.441 202.067,304.645 201.977,302.500 201.914 L 298.600 201.800 298.481 199.300 L 298.362 196.800 309.600 196.800 L 320.838 196.800 320.719 199.300 M262.379 248.703 C 263.029 249.229,263.235 249.807,263.197 251.003 C 263.169 251.881,263.134 253.050,263.119 253.600 C 263.105 254.150,263.231 255.452,263.400 256.494 C 263.611 257.795,263.556 258.571,263.224 258.971 C 262.461 259.891,261.600 259.265,261.600 257.790 C 261.600 256.069,261.250 255.200,260.557 255.200 C 260.166 255.200,260.000 255.721,260.000 256.951 C 260.000 258.719,259.231 259.914,258.418 259.411 C 257.957 259.126,257.817 248.717,258.267 248.267 C 258.804 247.729,261.534 248.019,262.379 248.703 M265.748 248.900 C 266.699 252.448,265.852 259.825,264.551 259.326 C 263.570 258.949,263.766 248.000,264.753 248.000 C 265.196 248.000,265.606 248.371,265.748 248.900 M271.021 248.823 L 271.765 249.646 272.070 248.823 C 272.755 246.971,273.769 247.964,274.089 250.800 C 274.192 251.711,274.292 251.640,275.206 250.004 C 277.190 246.458,278.354 247.645,276.533 251.357 L 275.467 253.532 276.755 256.229 C 278.592 260.075,277.113 261.069,275.183 257.285 L 274.222 255.400 274.011 257.400 C 273.879 258.654,273.614 259.385,273.300 259.360 C 272.156 259.268,272.000 259.169,272.000 258.530 C 272.000 257.962,271.860 257.992,271.074 258.730 C 269.310 260.388,266.400 259.310,266.400 257.000 C 266.400 255.741,267.820 255.602,268.207 256.823 C 268.479 257.678,269.615 257.756,269.888 256.937 C 269.973 256.682,269.223 255.551,268.221 254.424 C 266.804 252.828,266.400 252.066,266.400 250.987 C 266.400 248.364,269.354 246.981,271.021 248.823 M285.767 248.500 C 285.953 248.900,286.047 248.900,286.233 248.500 C 286.924 247.021,288.467 248.157,289.222 250.700 C 289.918 253.044,290.400 252.827,290.400 250.171 C 290.400 248.263,290.501 247.961,291.100 248.076 C 292.126 248.273,292.387 258.966,291.375 259.354 C 290.390 259.732,290.139 259.413,289.131 256.496 L 288.200 253.800 288.081 256.543 C 287.964 259.222,287.938 259.281,286.971 259.097 C 286.427 258.992,285.885 259.063,285.767 259.254 C 285.523 259.648,282.387 259.723,281.433 259.357 C 280.775 259.105,280.438 248.895,281.067 248.267 C 281.555 247.778,285.522 247.975,285.767 248.500 M296.874 248.500 C 297.219 248.775,297.697 249.360,297.938 249.800 C 298.342 250.539,298.377 250.515,298.388 249.487 C 298.401 248.244,299.477 247.561,300.034 248.442 C 300.502 249.181,300.504 259.089,300.036 259.378 C 299.312 259.825,298.400 259.095,298.388 258.057 C 298.376 257.070,298.347 257.053,297.938 257.800 C 295.600 262.075,292.600 259.783,292.600 253.723 C 292.600 248.604,294.339 246.478,296.874 248.500 M303.797 250.400 L 304.600 252.600 304.800 250.403 C 305.018 248.013,306.065 247.098,306.543 248.881 C 307.097 250.949,306.825 258.681,306.180 259.217 C 305.289 259.956,304.601 259.135,303.654 256.200 L 302.880 253.800 302.840 256.220 C 302.799 258.703,302.322 259.698,301.351 259.326 C 300.757 259.098,300.509 248.825,301.084 248.250 C 301.919 247.414,303.027 248.293,303.797 250.400 M312.171 248.668 C 312.483 249.482,311.772 249.986,310.300 249.994 C 308.634 250.003,308.631 252.681,310.297 252.873 C 311.915 253.060,312.011 254.338,310.430 254.654 C 308.465 255.047,308.575 257.600,310.557 257.600 C 311.886 257.600,312.688 258.410,312.178 259.236 C 311.925 259.645,308.808 259.731,307.833 259.357 C 307.175 259.105,306.838 248.895,307.467 248.267 C 308.074 247.660,311.909 247.987,312.171 248.668 M284.100 249.893 C 282.272 250.115,282.098 252.666,283.897 252.873 C 285.515 253.060,285.611 254.338,284.030 254.654 C 282.058 255.048,282.176 257.600,284.167 257.600 C 284.918 257.600,285.615 257.825,285.715 258.100 C 286.065 259.061,286.444 255.775,286.323 252.832 C 286.193 249.701,286.150 249.644,284.100 249.893 M260.000 251.600 C 260.000 253.339,260.518 253.675,261.208 252.385 C 261.736 251.398,261.364 250.000,260.573 250.000 C 260.171 250.000,260.000 250.478,260.000 251.600 M268.400 250.917 C 268.400 251.477,269.108 252.526,270.223 253.617 L 272.046 255.400 271.923 253.400 C 271.823 251.779,271.671 251.421,271.121 251.513 C 270.747 251.575,270.246 251.260,270.007 250.813 C 269.414 249.705,268.400 249.771,268.400 250.917 M294.587 250.908 C 294.087 252.901,294.560 257.384,295.286 257.522 C 296.313 257.718,296.686 255.779,295.808 254.809 C 294.893 253.798,295.390 253.119,296.934 253.274 C 297.894 253.371,298.221 253.227,298.331 252.661 C 298.445 252.070,298.304 251.976,297.626 252.192 C 296.934 252.411,296.701 252.236,296.351 251.230 C 295.847 249.785,294.912 249.615,294.587 250.908 " stroke="none" fill="#0c2c54" fill-rule="evenodd"></path><path id="path2" d="M220.928 162.800 C 220.928 164.230,221.001 164.815,221.089 164.100 C 221.178 163.385,221.178 162.215,221.089 161.500 C 221.001 160.785,220.928 161.370,220.928 162.800 M97.457 197.107 C 97.353 197.276,98.017 197.357,98.934 197.286 C 101.625 197.079,101.953 196.896,99.724 196.846 C 98.582 196.821,97.562 196.938,97.457 197.107 M121.061 197.100 C 120.959 197.265,121.803 197.349,122.938 197.286 C 126.616 197.082,127.063 196.921,124.124 196.860 C 122.542 196.827,121.164 196.935,121.061 197.100 M138.800 197.023 C 140.286 197.347,142.326 197.403,142.148 197.116 C 142.041 196.942,141.108 196.821,140.076 196.846 C 139.044 196.872,138.470 196.952,138.800 197.023 M260.657 197.107 C 260.553 197.276,261.217 197.357,262.134 197.286 C 264.825 197.079,265.153 196.896,262.924 196.846 C 261.782 196.821,260.762 196.938,260.657 197.107 M278.100 197.087 C 278.705 197.178,279.695 197.178,280.300 197.087 C 280.905 196.995,280.410 196.920,279.200 196.920 C 277.990 196.920,277.495 196.995,278.100 197.087 M302.600 197.081 C 311.519 197.364,320.309 197.374,320.139 197.100 C 320.037 196.935,315.238 196.837,309.476 196.883 C 303.714 196.929,300.620 197.018,302.600 197.081 M203.387 219.800 C 203.387 232.120,203.438 237.218,203.500 231.128 C 203.562 225.039,203.562 214.959,203.500 208.728 C 203.438 202.498,203.387 207.480,203.387 219.800 M276.573 207.400 C 276.573 212.680,276.630 214.785,276.699 212.077 C 276.768 209.369,276.768 205.049,276.699 202.477 C 276.629 199.905,276.572 202.120,276.573 207.400 M306.800 221.920 L 307.000 242.200 307.104 222.224 C 307.161 211.237,307.071 202.111,306.904 201.944 C 306.737 201.776,306.690 210.766,306.800 221.920 M165.293 207.600 C 165.293 208.370,165.375 208.685,165.476 208.300 C 165.576 207.915,165.576 207.285,165.476 206.900 C 165.375 206.515,165.293 206.830,165.293 207.600 M160.093 208.000 C 160.093 208.770,160.175 209.085,160.276 208.700 C 160.376 208.315,160.376 207.685,160.276 207.300 C 160.175 206.915,160.093 207.230,160.093 208.000 M234.105 222.687 C 234.714 222.779,235.614 222.777,236.105 222.682 C 236.597 222.587,236.100 222.511,235.000 222.514 C 233.900 222.517,233.497 222.595,234.105 222.687 M276.573 232.400 C 276.573 237.790,276.630 239.995,276.699 237.300 C 276.768 234.605,276.768 230.195,276.699 227.500 C 276.630 224.805,276.573 227.010,276.573 232.400 M291.754 254.000 C 291.754 256.750,291.818 257.875,291.896 256.500 C 291.974 255.125,291.974 252.875,291.896 251.500 C 291.818 250.125,291.754 251.250,291.754 254.000 M259.232 251.476 C 259.214 252.398,259.342 253.241,259.516 253.348 C 259.690 253.456,259.767 252.882,259.687 252.072 C 259.469 249.858,259.267 249.595,259.232 251.476 M294.137 253.800 C 294.139 255.560,294.209 256.230,294.293 255.289 C 294.378 254.349,294.377 252.909,294.291 252.089 C 294.205 251.270,294.136 252.040,294.137 253.800 M287.595 256.282 C 287.488 257.867,287.544 259.019,287.721 258.841 C 287.897 258.664,287.985 257.367,287.916 255.959 L 287.791 253.400 287.595 256.282 M259.314 257.000 C 259.317 258.100,259.395 258.503,259.487 257.895 C 259.579 257.286,259.577 256.386,259.482 255.895 C 259.387 255.403,259.311 255.900,259.314 257.000 " stroke="none" fill="#8494a7" fill-rule="evenodd"></path><path id="path3" d="M196.700 128.698 C 198.955 128.770,202.645 128.770,204.900 128.698 C 207.155 128.627,205.310 128.569,200.800 128.569 C 196.290 128.569,194.445 128.627,196.700 128.698 M189.200 129.200 C 187.843 129.486,187.837 129.495,189.000 129.507 C 189.660 129.515,190.650 129.376,191.200 129.200 C 192.512 128.780,191.196 128.780,189.200 129.200 M210.600 129.200 C 211.260 129.368,212.250 129.505,212.800 129.505 C 213.692 129.505,213.670 129.472,212.600 129.200 C 211.940 129.032,210.950 128.895,210.400 128.895 C 209.508 128.895,209.530 128.928,210.600 129.200 M185.600 130.000 C 184.776 130.264,184.741 130.326,185.400 130.354 C 185.840 130.373,186.470 130.213,186.800 130.000 C 187.501 129.547,187.014 129.547,185.600 130.000 M215.000 130.000 C 215.440 130.189,216.160 130.338,216.600 130.332 C 217.243 130.323,217.204 130.257,216.400 130.000 C 215.032 129.562,213.981 129.562,215.000 130.000 M182.400 130.800 C 181.596 131.057,181.557 131.123,182.200 131.132 C 182.640 131.138,183.360 130.989,183.800 130.800 C 184.819 130.362,183.768 130.362,182.400 130.800 M174.600 133.578 C 173.720 133.995,173.180 134.336,173.400 134.338 C 173.946 134.342,177.102 132.864,176.600 132.840 C 176.380 132.830,175.480 133.162,174.600 133.578 M171.000 135.178 C 170.120 135.595,169.513 135.950,169.651 135.968 C 170.040 136.018,172.800 134.814,172.800 134.595 C 172.800 134.327,172.799 134.327,171.000 135.178 M228.800 134.584 C 228.800 134.694,229.520 135.151,230.400 135.600 C 231.280 136.049,232.000 136.326,232.000 136.216 C 232.000 136.106,231.280 135.649,230.400 135.200 C 229.520 134.751,228.800 134.474,228.800 134.584 M193.676 135.540 C 193.168 135.683,196.464 135.800,201.000 135.800 C 205.536 135.800,208.832 135.683,208.324 135.540 C 207.816 135.397,204.520 135.280,201.000 135.280 C 197.480 135.280,194.184 135.397,193.676 135.540 M166.290 137.468 C 164.800 138.263,163.642 138.975,163.717 139.050 C 163.880 139.213,169.200 136.422,169.200 136.173 C 169.200 135.915,169.212 135.910,166.290 137.468 M189.200 136.400 C 187.856 136.831,189.308 136.831,191.000 136.400 C 192.078 136.126,192.098 136.094,191.200 136.087 C 190.650 136.083,189.750 136.224,189.200 136.400 M185.600 137.206 C 185.178 137.482,185.415 137.523,186.400 137.342 C 188.125 137.025,188.451 136.798,187.167 136.806 C 186.635 136.809,185.930 136.989,185.600 137.206 M214.033 136.944 C 214.125 137.023,214.740 137.208,215.400 137.356 C 216.276 137.552,216.438 137.515,216.000 137.218 C 215.460 136.853,213.632 136.598,214.033 136.944 M233.200 136.979 C 233.200 137.089,233.740 137.459,234.400 137.800 C 235.060 138.141,235.600 138.331,235.600 138.221 C 235.600 138.111,235.060 137.741,234.400 137.400 C 233.740 137.059,233.200 136.869,233.200 136.979 M182.800 138.018 C 182.362 138.315,182.524 138.352,183.400 138.156 C 184.871 137.827,185.190 137.598,184.167 137.606 C 183.745 137.609,183.130 137.795,182.800 138.018 M179.700 139.034 C 178.985 139.346,178.400 139.690,178.400 139.798 C 178.400 139.976,181.576 138.851,181.967 138.535 C 182.395 138.188,180.862 138.526,179.700 139.034 M159.381 141.587 C 157.411 142.900,155.170 144.536,154.400 145.222 C 153.257 146.241,153.220 146.315,154.200 145.621 C 154.860 145.155,157.020 143.675,159.000 142.333 C 162.636 139.869,163.524 139.200,163.161 139.200 C 163.051 139.200,161.350 140.274,159.381 141.587 M223.654 140.187 C 223.990 140.523,226.800 141.616,226.800 141.411 C 226.800 141.301,226.148 140.938,225.351 140.605 C 223.875 139.989,223.318 139.851,223.654 140.187 M238.400 140.121 C 238.400 140.212,239.435 140.951,240.700 141.763 C 241.965 142.575,242.508 142.821,241.906 142.310 C 240.718 141.300,238.400 139.853,238.400 140.121 M198.500 141.491 C 199.325 141.578,200.675 141.578,201.500 141.491 C 202.325 141.405,201.650 141.334,200.000 141.334 C 198.350 141.334,197.675 141.405,198.500 141.491 M172.300 142.229 C 170.749 143.070,170.925 143.361,172.500 142.559 C 174.008 141.793,174.275 141.594,173.767 141.616 C 173.565 141.625,172.905 141.901,172.300 142.229 M194.400 142.000 C 193.596 142.257,193.557 142.323,194.200 142.332 C 194.640 142.338,195.360 142.189,195.800 142.000 C 196.819 141.562,195.768 141.562,194.400 142.000 M204.200 142.000 C 204.640 142.189,205.360 142.338,205.800 142.332 C 206.443 142.323,206.404 142.257,205.600 142.000 C 204.232 141.562,203.181 141.562,204.200 142.000 M229.200 142.820 C 230.587 143.761,231.378 144.035,230.400 143.236 C 229.850 142.786,229.220 142.417,229.000 142.415 C 228.780 142.413,228.870 142.596,229.200 142.820 M243.200 143.318 C 243.200 143.420,244.047 144.197,245.081 145.045 C 246.116 145.893,246.834 146.378,246.676 146.123 C 246.340 145.579,243.200 143.045,243.200 143.318 M187.133 145.574 C 185.302 146.884,182.800 149.502,182.800 150.107 C 182.800 150.195,183.925 149.163,185.300 147.814 C 186.675 146.465,188.250 145.065,188.800 144.702 C 189.350 144.339,189.694 144.033,189.565 144.021 C 189.436 144.009,188.341 144.708,187.133 145.574 M211.200 144.663 C 211.750 145.048,213.325 146.465,214.700 147.814 C 216.075 149.163,217.200 150.121,217.200 149.942 C 217.200 149.365,212.978 145.422,211.568 144.683 C 210.338 144.037,210.301 144.035,211.200 144.663 M166.400 145.636 C 165.736 146.179,165.669 146.315,166.200 146.040 C 167.505 145.366,168.228 144.812,167.800 144.815 C 167.580 144.817,166.950 145.186,166.400 145.636 M232.833 144.925 C 235.016 146.562,238.456 148.814,238.240 148.464 C 237.910 147.931,233.395 144.800,232.955 144.800 C 232.797 144.800,232.742 144.856,232.833 144.925 M150.400 148.443 L 148.200 150.477 150.299 148.802 C 152.156 147.320,153.096 146.391,152.724 146.404 C 152.656 146.407,151.610 147.324,150.400 148.443 M247.200 146.496 C 247.200 146.592,248.775 148.084,250.700 149.812 C 252.625 151.540,253.660 152.362,253.000 151.639 C 251.674 150.187,247.200 146.219,247.200 146.496 M160.700 149.414 C 159.655 150.180,158.800 150.896,158.800 151.003 C 158.800 151.111,159.700 150.552,160.800 149.762 C 162.509 148.534,163.123 147.968,162.700 148.010 C 162.645 148.015,161.745 148.647,160.700 149.414 M240.200 150.156 C 241.080 150.944,241.965 151.591,242.167 151.594 C 242.368 151.597,242.458 151.545,242.367 151.477 C 242.275 151.410,241.390 150.763,240.400 150.039 L 238.600 148.724 240.200 150.156 M181.400 152.000 C 181.059 152.660,180.869 153.200,180.979 153.200 C 181.089 153.200,181.459 152.660,181.800 152.000 C 182.141 151.340,182.331 150.800,182.221 150.800 C 182.111 150.800,181.741 151.340,181.400 152.000 M218.200 152.000 C 218.541 152.660,218.911 153.200,219.021 153.200 C 219.131 153.200,218.941 152.660,218.600 152.000 C 218.259 151.340,217.889 150.800,217.779 150.800 C 217.669 150.800,217.859 151.340,218.200 152.000 M142.751 155.499 C 134.860 163.667,134.897 162.938,142.030 169.665 C 149.029 176.266,149.183 176.107,142.348 169.335 C 139.297 166.311,136.800 163.535,136.800 163.167 C 136.800 162.401,141.571 156.842,144.963 153.656 C 146.218 152.477,147.172 151.438,147.082 151.349 C 146.992 151.259,145.043 153.127,142.751 155.499 M155.092 153.700 C 153.409 155.075,152.025 156.346,152.016 156.524 C 152.007 156.702,153.035 155.947,154.300 154.846 C 155.565 153.746,157.050 152.481,157.600 152.036 C 158.150 151.591,158.499 151.221,158.375 151.213 C 158.252 151.206,156.774 152.325,155.092 153.700 M245.200 154.288 C 246.630 155.623,247.859 156.661,247.930 156.594 C 248.091 156.445,244.617 153.219,243.449 152.432 C 242.982 152.117,243.770 152.953,245.200 154.288 M199.100 154.282 C 199.595 154.378,200.405 154.378,200.900 154.282 C 201.395 154.187,200.990 154.109,200.000 154.109 C 199.010 154.109,198.605 154.187,199.100 154.282 M195.094 155.621 C 192.127 157.586,190.143 162.913,191.551 165.134 C 191.748 165.445,191.807 164.816,191.693 163.627 C 191.353 160.093,193.217 156.840,196.600 155.063 C 197.260 154.716,197.606 154.425,197.369 154.416 C 197.131 154.407,196.108 154.949,195.094 155.621 M203.400 155.065 C 205.004 155.910,206.346 157.142,207.252 158.600 C 207.662 159.260,207.996 159.620,207.996 159.400 C 207.992 158.103,203.978 154.367,202.640 154.416 C 202.398 154.425,202.740 154.717,203.400 155.065 M148.490 159.709 C 146.900 161.310,145.600 162.820,145.600 163.066 C 145.600 163.530,148.698 166.513,152.320 169.537 C 155.918 172.542,154.582 171.104,150.200 167.256 C 145.206 162.871,145.287 163.337,148.890 159.709 C 150.479 158.109,151.690 156.800,151.580 156.800 C 151.470 156.800,150.079 158.109,148.490 159.709 M260.586 159.561 C 261.843 160.970,263.024 162.500,263.210 162.961 C 263.484 163.639,263.554 163.666,263.575 163.104 C 263.589 162.721,262.408 161.191,260.951 159.704 L 258.301 157.000 260.586 159.561 M178.657 159.900 C 178.359 161.701,178.400 164.560,178.747 166.177 C 178.886 166.825,179.000 165.340,179.000 162.877 C 179.000 157.844,178.999 157.832,178.657 159.900 M221.000 162.800 C 221.000 165.305,221.114 166.825,221.253 166.177 C 221.392 165.530,221.505 164.010,221.505 162.800 C 221.505 161.590,221.392 160.070,221.253 159.423 C 221.114 158.775,221.000 160.295,221.000 162.800 M208.198 162.830 C 208.197 164.343,208.319 165.270,208.470 164.890 C 208.841 163.954,208.857 161.108,208.494 160.540 C 208.332 160.287,208.199 161.318,208.198 162.830 M261.368 165.900 C 260.528 166.945,260.255 167.440,260.763 167.000 C 261.717 166.174,263.392 164.000,263.075 164.000 C 262.977 164.000,262.209 164.855,261.368 165.900 M251.186 166.700 L 249.000 169.000 251.300 166.814 C 252.565 165.611,253.600 164.576,253.600 164.514 C 253.600 164.217,253.218 164.563,251.186 166.700 M194.087 169.005 C 194.904 169.860,195.638 170.479,195.717 170.380 C 195.797 170.281,195.128 169.581,194.231 168.825 L 192.600 167.450 194.087 169.005 M205.506 169.011 C 204.684 169.775,204.154 170.400,204.327 170.400 C 204.501 170.400,205.254 169.770,206.000 169.000 C 207.741 167.203,207.443 167.210,205.506 169.011 M220.229 168.629 C 220.081 169.215,220.038 169.772,220.132 169.866 C 220.227 169.960,220.424 169.558,220.571 168.971 C 220.719 168.385,220.762 167.828,220.668 167.734 C 220.573 167.640,220.376 168.042,220.229 168.629 M255.773 171.862 C 253.778 173.918,252.252 175.600,252.381 175.600 C 252.510 175.600,254.319 173.890,256.400 171.800 C 258.481 169.710,260.008 168.028,259.792 168.062 C 259.576 168.096,257.768 169.806,255.773 171.862 M246.000 171.238 C 244.790 172.340,242.315 174.333,240.500 175.667 C 236.701 178.460,236.035 179.268,239.584 176.779 C 242.320 174.860,249.027 169.191,248.531 169.217 C 248.349 169.227,247.210 170.136,246.000 171.238 M219.078 171.805 C 218.712 172.572,218.495 173.200,218.596 173.200 C 218.870 173.200,220.084 170.751,219.901 170.568 C 219.814 170.481,219.444 171.038,219.078 171.805 M181.477 173.663 C 182.338 175.167,186.338 179.600,186.834 179.600 C 187.026 179.600,186.386 178.866,185.413 177.969 C 184.440 177.073,183.075 175.453,182.380 174.369 C 180.976 172.181,180.349 171.690,181.477 173.663 M157.869 174.130 C 159.357 175.354,162.800 177.685,162.800 177.468 C 162.800 177.251,157.258 173.200,156.961 173.200 C 156.839 173.200,157.247 173.619,157.869 174.130 M217.230 174.951 C 216.771 175.695,215.590 177.045,214.606 177.951 C 213.623 178.858,212.968 179.600,213.151 179.600 C 213.601 179.600,217.357 175.602,217.952 174.489 C 218.694 173.104,218.161 173.444,217.230 174.951 M148.700 175.658 C 149.287 176.391,154.000 180.138,154.000 179.872 C 154.000 179.772,152.695 178.642,151.100 177.362 C 149.505 176.081,148.425 175.314,148.700 175.658 M249.200 178.065 C 247.990 179.182,247.540 179.730,248.200 179.284 C 249.329 178.521,251.954 175.980,251.575 176.017 C 251.479 176.027,250.410 176.948,249.200 178.065 M163.200 177.720 C 163.200 177.924,167.019 180.472,168.400 181.189 C 169.943 181.990,169.193 181.373,166.575 179.688 C 163.388 177.636,163.200 177.527,163.200 177.720 M154.540 180.303 C 154.661 180.499,156.344 181.737,158.280 183.054 C 162.034 185.608,165.260 187.586,164.600 186.930 C 163.928 186.261,154.305 179.922,154.540 180.303 M233.000 180.800 C 232.340 181.237,231.980 181.592,232.200 181.588 C 232.601 181.582,234.776 180.023,234.400 180.012 C 234.290 180.008,233.660 180.363,233.000 180.800 M245.185 181.229 L 243.800 182.458 245.300 181.381 C 246.626 180.430,247.057 180.000,246.685 180.000 C 246.622 180.000,245.947 180.553,245.185 181.229 M188.800 180.992 C 188.800 181.260,191.592 182.640,192.800 182.970 C 193.350 183.120,192.720 182.697,191.400 182.031 C 188.778 180.706,188.800 180.715,188.800 180.992 M208.400 182.077 C 207.190 182.714,206.650 183.114,207.200 182.966 C 208.401 182.643,211.200 181.262,211.200 180.992 C 211.200 180.673,210.699 180.867,208.400 182.077 M171.200 182.596 C 171.200 182.870,173.649 184.084,173.832 183.901 C 173.919 183.814,173.362 183.444,172.595 183.078 C 171.828 182.712,171.200 182.495,171.200 182.596 M241.487 183.768 C 239.126 185.402,238.564 185.975,240.306 184.972 C 241.650 184.199,243.956 182.423,243.600 182.436 C 243.490 182.441,242.539 183.040,241.487 183.768 M194.800 183.600 C 195.350 183.776,196.160 183.920,196.600 183.920 C 197.233 183.920,197.192 183.854,196.400 183.600 C 195.850 183.424,195.040 183.280,194.600 183.280 C 193.967 183.280,194.008 183.346,194.800 183.600 M203.600 183.600 C 202.808 183.854,202.767 183.920,203.400 183.920 C 203.840 183.920,204.650 183.776,205.200 183.600 C 205.992 183.346,206.033 183.280,205.400 183.280 C 204.960 183.280,204.150 183.424,203.600 183.600 M221.800 186.000 C 220.260 186.637,219.201 187.168,219.447 187.179 C 220.001 187.205,224.062 185.586,224.580 185.133 C 225.136 184.646,224.885 184.724,221.800 186.000 M236.300 187.029 C 234.805 187.840,234.896 188.178,236.400 187.400 C 237.060 187.059,237.600 186.694,237.600 186.590 C 237.600 186.332,237.557 186.347,236.300 187.029 M165.200 187.379 C 165.200 187.489,165.740 187.859,166.400 188.200 C 167.060 188.541,167.600 188.731,167.600 188.621 C 167.600 188.511,167.060 188.141,166.400 187.800 C 165.740 187.459,165.200 187.269,165.200 187.379 M185.600 188.382 C 185.930 188.605,186.545 188.791,186.967 188.794 C 187.990 188.802,187.671 188.573,186.200 188.244 C 185.324 188.048,185.162 188.085,185.600 188.382 M168.611 189.334 C 169.496 189.932,170.800 190.458,170.800 190.217 C 170.800 190.037,168.398 188.800,168.050 188.800 C 167.924 188.800,168.177 189.040,168.611 189.334 M189.400 189.190 C 190.164 189.528,192.714 189.757,192.367 189.456 C 192.275 189.376,191.390 189.204,190.400 189.073 C 189.198 188.914,188.866 188.953,189.400 189.190 M210.400 189.200 C 209.033 189.488,209.028 189.495,210.200 189.519 C 210.860 189.533,211.760 189.389,212.200 189.200 C 213.162 188.787,212.364 188.787,210.400 189.200 M230.800 190.000 C 229.590 190.639,228.741 191.171,228.913 191.181 C 229.338 191.207,233.200 189.236,233.200 188.993 C 233.200 188.726,233.255 188.703,230.800 190.000 M200.600 190.000 L 195.400 190.237 200.200 190.295 C 202.840 190.328,205.720 190.205,206.600 190.023 C 208.445 189.641,208.479 189.641,200.600 190.000 M171.254 190.587 C 171.590 190.923,174.400 192.016,174.400 191.811 C 174.400 191.701,173.748 191.338,172.951 191.005 C 171.475 190.389,170.918 190.251,171.254 190.587 M181.633 194.544 C 181.725 194.623,182.340 194.808,183.000 194.956 C 183.876 195.152,184.038 195.115,183.600 194.818 C 183.060 194.453,181.232 194.198,181.633 194.544 M217.600 194.818 C 217.162 195.115,217.324 195.152,218.200 194.956 C 219.671 194.627,219.990 194.398,218.967 194.406 C 218.545 194.409,217.930 194.595,217.600 194.818 M184.833 195.344 C 184.925 195.423,185.540 195.608,186.200 195.756 C 187.076 195.952,187.238 195.915,186.800 195.618 C 186.260 195.253,184.432 194.998,184.833 195.344 M214.600 195.600 C 213.581 196.038,214.632 196.038,216.000 195.600 C 216.804 195.343,216.843 195.277,216.200 195.268 C 215.760 195.262,215.040 195.411,214.600 195.600 M189.000 196.400 C 190.692 196.831,192.144 196.831,190.800 196.400 C 190.250 196.224,189.350 196.083,188.800 196.087 C 187.902 196.094,187.922 196.126,189.000 196.400 M210.400 196.420 C 209.726 196.649,210.051 196.684,211.400 196.528 C 212.500 196.401,213.475 196.231,213.567 196.149 C 213.882 195.868,211.399 196.080,210.400 196.420 M168.700 196.693 C 169.635 196.777,171.165 196.777,172.100 196.693 C 173.035 196.609,172.270 196.540,170.400 196.540 C 168.530 196.540,167.765 196.609,168.700 196.693 M230.300 196.693 C 231.235 196.777,232.765 196.777,233.700 196.693 C 234.635 196.609,233.870 196.540,232.000 196.540 C 230.130 196.540,229.365 196.609,230.300 196.693 M96.891 219.700 C 96.942 232.295,97.031 238.910,97.090 234.400 C 97.368 213.213,97.372 196.800,97.100 196.800 C 96.935 196.800,96.841 207.105,96.891 219.700 M195.297 197.097 L 197.993 197.236 198.097 219.918 L 198.200 242.600 200.534 242.721 C 204.293 242.916,204.000 244.870,204.000 219.571 L 204.000 197.240 206.300 197.085 L 208.600 196.930 206.089 196.965 L 203.577 197.000 203.489 219.600 L 203.400 242.200 200.900 242.319 L 198.400 242.438 198.400 219.619 L 198.400 196.800 195.500 196.878 L 192.600 196.957 195.297 197.097 M260.091 219.700 C 260.142 232.295,260.231 238.910,260.290 234.400 C 260.568 213.213,260.572 196.800,260.300 196.800 C 260.135 196.800,260.041 207.105,260.091 219.700 M276.252 197.700 C 276.119 198.195,276.008 202.785,276.005 207.900 L 276.000 217.200 271.007 217.200 L 266.014 217.200 265.896 207.500 L 265.778 197.800 265.789 207.600 L 265.800 217.400 271.000 217.400 L 276.200 217.400 276.400 207.600 C 276.510 202.210,276.746 197.575,276.924 197.300 C 277.102 197.025,277.078 196.800,276.870 196.800 C 276.663 196.800,276.385 197.205,276.252 197.700 M281.506 219.639 L 281.613 242.439 279.106 242.319 L 276.600 242.200 276.400 232.200 L 276.200 222.200 271.000 222.200 L 265.800 222.200 265.789 232.100 L 265.779 242.000 265.896 232.200 L 266.014 222.400 271.007 222.400 L 276.000 222.400 276.000 232.151 C 276.000 243.343,275.857 242.908,279.466 242.721 L 281.800 242.600 281.903 220.023 C 281.960 207.606,281.870 197.310,281.703 197.143 C 281.537 196.976,281.448 207.099,281.506 219.639 M320.335 199.185 L 320.470 201.571 316.335 201.686 L 312.200 201.800 312.096 222.134 L 311.993 242.468 309.415 242.334 C 307.997 242.260,306.982 242.345,307.160 242.522 C 307.338 242.699,308.545 242.789,309.842 242.722 L 312.200 242.600 312.304 222.314 L 312.407 202.028 316.504 201.914 L 320.600 201.800 320.719 199.300 C 320.785 197.925,320.695 196.800,320.519 196.799 C 320.344 196.799,320.261 197.872,320.335 199.185 M120.587 219.800 C 120.587 232.120,120.638 237.218,120.700 231.128 C 120.762 225.039,120.762 214.959,120.700 208.728 C 120.638 202.498,120.587 207.480,120.587 219.800 M142.587 219.800 C 142.587 232.120,142.638 237.218,142.700 231.128 C 142.762 225.039,142.762 214.959,142.700 208.728 C 142.638 202.498,142.587 207.480,142.587 219.800 M163.322 198.629 L 162.200 199.658 163.500 198.754 C 164.215 198.257,164.800 197.793,164.800 197.725 C 164.800 197.409,164.358 197.680,163.322 198.629 M177.560 199.356 C 178.462 200.432,179.200 201.547,179.200 201.833 C 179.200 202.119,179.363 202.454,179.563 202.577 C 180.547 203.185,179.283 200.939,177.709 199.282 L 175.921 197.400 177.560 199.356 M225.000 198.635 L 223.800 199.666 225.100 198.806 C 225.815 198.333,226.400 197.868,226.400 197.773 C 226.400 197.473,226.231 197.578,225.000 198.635 M237.600 197.711 C 237.600 197.787,238.185 198.278,238.900 198.801 C 239.704 199.390,239.984 199.487,239.633 199.055 C 239.100 198.399,237.600 197.407,237.600 197.711 M102.587 220.000 C 102.587 232.210,102.638 237.205,102.700 231.100 C 102.762 224.995,102.762 215.005,102.700 208.900 C 102.638 202.795,102.587 207.790,102.587 220.000 M160.865 202.217 C 160.609 202.778,160.408 203.544,160.418 203.919 C 160.427 204.293,160.689 203.887,161.000 203.015 C 161.645 201.204,161.559 200.694,160.865 202.217 M298.660 201.700 C 298.763 201.865,300.532 202.000,302.590 202.000 C 304.748 202.000,306.419 202.174,306.537 202.410 C 306.649 202.636,306.694 202.591,306.638 202.310 C 306.567 201.954,305.323 201.740,302.505 201.600 C 300.288 201.490,298.558 201.535,298.660 201.700 M167.500 202.032 C 166.661 202.521,165.593 204.477,165.618 205.480 C 165.630 206.001,166.749 203.559,166.794 202.913 C 166.797 202.865,167.295 202.557,167.900 202.229 C 168.505 201.901,168.820 201.630,168.600 201.628 C 168.380 201.626,167.885 201.808,167.500 202.032 M172.628 201.986 C 173.525 202.349,174.590 203.765,174.908 205.017 C 175.098 205.765,175.109 205.766,175.154 205.038 C 175.216 204.007,173.325 201.594,172.480 201.625 C 171.944 201.645,171.976 201.722,172.628 201.986 M228.947 202.309 C 227.999 203.077,227.189 204.468,227.221 205.274 C 227.232 205.563,227.505 205.165,227.828 204.388 C 228.151 203.611,228.907 202.671,229.508 202.299 C 230.108 201.926,230.420 201.621,230.200 201.620 C 229.980 201.619,229.416 201.929,228.947 202.309 M234.000 201.882 C 234.979 202.240,236.398 203.692,236.432 204.370 C 236.455 204.829,236.521 204.855,236.676 204.468 C 236.941 203.803,234.871 201.589,234.025 201.632 C 233.487 201.659,233.483 201.694,234.000 201.882 M221.822 204.222 C 221.672 205.025,221.628 205.762,221.726 205.860 C 221.824 205.957,222.027 205.381,222.178 204.578 C 222.328 203.775,222.372 203.038,222.274 202.940 C 222.176 202.843,221.973 203.419,221.822 204.222 M241.680 203.400 C 241.680 203.840,241.824 204.650,242.000 205.200 C 242.254 205.992,242.320 206.033,242.320 205.400 C 242.320 204.960,242.176 204.150,242.000 203.600 C 241.746 202.808,241.680 202.767,241.680 203.400 M180.153 206.200 L 180.200 209.000 178.000 209.000 C 175.802 209.000,175.800 208.998,175.538 207.600 L 175.275 206.200 175.338 207.800 L 175.400 209.400 178.000 209.400 L 180.600 209.400 180.721 207.738 C 180.788 206.823,180.676 205.473,180.474 204.738 C 180.163 203.611,180.113 203.842,180.153 206.200 M236.893 206.400 C 236.893 207.170,236.975 207.485,237.076 207.100 C 237.176 206.715,237.176 206.085,237.076 205.700 C 236.975 205.315,236.893 205.630,236.893 206.400 M226.979 219.600 C 226.979 226.970,227.033 229.985,227.099 226.300 C 227.165 222.615,227.165 216.585,227.099 212.900 C 227.033 209.215,226.979 212.230,226.979 219.600 M125.683 225.100 C 125.729 234.505,125.817 240.580,125.880 238.600 C 126.157 229.805,126.172 207.999,125.900 208.000 C 125.735 208.000,125.637 215.695,125.683 225.100 M237.320 210.000 C 237.320 211.210,237.395 211.705,237.487 211.100 C 237.578 210.495,237.578 209.505,237.487 208.900 C 237.395 208.295,237.320 208.790,237.320 210.000 M242.501 209.400 C 242.505 210.280,242.587 210.593,242.683 210.095 C 242.779 209.598,242.775 208.878,242.675 208.495 C 242.575 208.113,242.496 208.520,242.501 209.400 M160.028 210.033 C 160.044 210.565,160.219 211.360,160.419 211.800 C 160.671 212.358,160.707 212.115,160.538 211.000 C 160.255 209.143,159.987 208.636,160.028 210.033 M132.006 211.433 C 132.009 211.855,132.195 212.470,132.418 212.800 C 132.715 213.238,132.752 213.076,132.556 212.200 C 132.227 210.729,131.998 210.410,132.006 211.433 M238.905 212.287 C 239.514 212.379,240.414 212.377,240.905 212.282 C 241.397 212.187,240.900 212.111,239.800 212.114 C 238.700 212.117,238.297 212.195,238.905 212.287 M169.427 215.462 C 170.322 216.308,172.374 218.160,173.987 219.579 C 175.600 220.997,177.612 223.230,178.460 224.541 C 179.307 225.852,180.000 226.758,180.000 226.555 C 180.000 225.150,176.612 221.346,171.600 217.124 C 169.510 215.364,168.532 214.616,169.427 215.462 M164.976 218.691 C 166.063 219.841,167.038 220.696,167.143 220.591 C 167.247 220.486,167.255 220.355,167.159 220.300 C 167.063 220.245,166.088 219.390,164.993 218.400 L 163.000 216.600 164.976 218.691 M128.856 217.600 C 128.856 217.930,129.011 218.560,129.200 219.000 C 129.417 219.504,129.544 219.578,129.544 219.200 C 129.544 218.870,129.389 218.240,129.200 217.800 C 128.983 217.296,128.856 217.222,128.856 217.600 M232.643 218.233 C 231.554 221.071,232.579 223.085,235.208 223.272 L 237.000 223.400 237.222 227.600 L 237.443 231.800 237.516 227.800 C 237.602 223.020,237.535 222.886,234.992 222.726 L 233.000 222.600 233.000 220.400 L 233.000 218.200 237.663 218.200 C 240.227 218.200,242.241 218.065,242.139 217.900 C 241.734 217.248,232.902 217.557,232.643 218.233 M242.562 225.000 C 242.562 228.520,242.624 229.906,242.698 228.081 C 242.772 226.256,242.772 223.376,242.697 221.681 C 242.622 219.986,242.561 221.480,242.562 225.000 M135.206 221.433 C 135.209 221.855,135.395 222.470,135.618 222.800 C 135.915 223.238,135.952 223.076,135.756 222.200 C 135.427 220.729,135.198 220.410,135.206 221.433 M169.908 223.047 C 171.287 224.341,172.862 226.020,173.408 226.778 C 173.953 227.535,174.400 228.004,174.400 227.819 C 174.400 227.178,171.615 224.087,169.512 222.394 C 167.533 220.801,167.558 220.842,169.908 223.047 M136.800 226.576 C 136.800 226.893,136.980 227.264,137.200 227.400 C 137.420 227.536,137.600 227.277,137.600 226.824 C 137.600 226.371,137.420 226.000,137.200 226.000 C 136.980 226.000,136.800 226.259,136.800 226.576 M180.272 229.000 C 180.399 230.100,180.569 231.075,180.651 231.167 C 180.932 231.482,180.720 228.999,180.380 228.000 C 180.151 227.326,180.116 227.651,180.272 229.000 M160.080 228.880 C 159.803 229.157,159.628 230.298,159.667 231.580 L 159.734 233.800 159.967 231.400 L 160.200 229.000 162.400 228.765 L 164.600 228.530 162.580 228.465 C 161.455 228.429,160.347 228.613,160.080 228.880 M174.658 229.600 C 174.975 231.325,175.202 231.651,175.194 230.367 C 175.191 229.835,175.011 229.130,174.794 228.800 C 174.518 228.378,174.477 228.615,174.658 229.600 M164.924 231.400 C 164.926 232.720,165.001 233.212,165.090 232.493 C 165.179 231.774,165.177 230.694,165.086 230.093 C 164.995 229.492,164.922 230.080,164.924 231.400 M174.800 233.220 C 174.800 234.661,173.885 236.580,172.900 237.203 C 172.426 237.503,172.394 237.597,172.800 237.492 C 174.163 237.142,176.223 232.000,175.000 232.000 C 174.890 232.000,174.800 232.549,174.800 233.220 M180.233 234.033 C 180.083 235.166,180.041 236.174,180.139 236.272 C 180.237 236.371,180.445 235.528,180.600 234.400 C 180.755 233.272,180.798 232.264,180.694 232.161 C 180.591 232.058,180.384 232.900,180.233 234.033 M133.656 232.800 C 133.656 233.130,133.811 233.760,134.000 234.200 C 134.217 234.704,134.344 234.778,134.344 234.400 C 134.344 234.070,134.189 233.440,134.000 233.000 C 133.783 232.496,133.656 232.422,133.656 232.800 M221.668 234.200 C 221.662 234.640,221.811 235.360,222.000 235.800 C 222.438 236.819,222.438 235.768,222.000 234.400 C 221.743 233.596,221.677 233.557,221.668 234.200 M241.850 234.850 C 241.709 235.553,241.669 236.202,241.759 236.292 C 241.850 236.383,242.048 235.891,242.200 235.200 C 242.352 234.509,242.393 233.859,242.291 233.758 C 242.189 233.656,241.991 234.147,241.850 234.850 M227.225 234.469 C 227.167 236.006,231.408 239.125,232.318 238.215 C 232.407 238.126,231.771 237.862,230.904 237.628 C 229.204 237.170,228.272 236.358,227.646 234.792 C 227.389 234.147,227.242 234.035,227.225 234.469 M160.057 234.800 C 159.982 236.850,162.428 240.780,164.421 241.811 C 166.039 242.647,165.907 242.255,164.220 241.212 C 162.645 240.239,161.405 238.416,160.621 235.922 C 160.323 234.975,160.069 234.470,160.057 234.800 M165.600 235.464 C 165.600 235.682,166.095 236.297,166.700 236.830 L 167.800 237.800 166.800 236.600 C 166.250 235.940,165.755 235.325,165.700 235.233 C 165.645 235.142,165.600 235.245,165.600 235.464 M222.416 236.920 C 222.386 237.520,223.546 239.457,224.274 240.022 C 224.960 240.555,224.964 240.542,224.350 239.793 C 223.993 239.357,223.415 238.460,223.066 237.800 C 222.717 237.140,222.425 236.744,222.416 236.920 M241.200 237.078 C 241.200 237.303,240.728 238.184,240.152 239.033 C 239.575 239.883,239.407 240.326,239.778 240.018 C 240.619 239.320,241.738 237.205,241.429 236.896 C 241.303 236.770,241.200 236.852,241.200 237.078 M168.033 237.744 C 168.125 237.823,168.740 238.008,169.400 238.156 C 170.276 238.352,170.438 238.315,170.000 238.018 C 169.460 237.653,167.632 237.398,168.033 237.744 M177.626 240.107 C 176.487 241.511,176.442 241.629,177.363 240.800 C 178.320 239.938,179.456 238.386,179.114 238.407 C 179.051 238.411,178.382 239.176,177.626 240.107 M225.944 241.576 C 226.464 242.029,227.079 242.400,227.311 242.400 C 227.803 242.400,227.779 242.380,226.200 241.455 L 225.000 240.753 225.944 241.576 M237.400 241.627 C 236.740 242.050,236.405 242.397,236.656 242.398 C 236.906 242.399,237.536 242.046,238.056 241.613 C 239.245 240.623,238.959 240.629,237.400 241.627 M98.707 242.690 C 99.426 242.779,100.506 242.777,101.107 242.686 C 101.708 242.595,101.120 242.522,99.800 242.524 C 98.480 242.526,97.988 242.601,98.707 242.690 M122.100 242.687 C 122.705 242.778,123.695 242.778,124.300 242.687 C 124.905 242.595,124.410 242.520,123.200 242.520 C 121.990 242.520,121.495 242.595,122.100 242.687 M138.300 242.689 C 139.015 242.778,140.185 242.778,140.900 242.689 C 141.615 242.601,141.030 242.528,139.600 242.528 C 138.170 242.528,137.585 242.601,138.300 242.689 M166.876 242.860 C 167.384 243.003,168.880 243.120,170.200 243.120 C 171.520 243.120,173.016 243.003,173.524 242.860 C 174.032 242.717,172.536 242.600,170.200 242.600 C 167.864 242.600,166.368 242.717,166.876 242.860 M232.000 242.800 L 229.400 243.062 231.800 243.091 C 233.120 243.107,234.650 242.976,235.200 242.800 C 236.401 242.415,235.817 242.415,232.000 242.800 M261.907 242.690 C 262.626 242.779,263.706 242.777,264.307 242.686 C 264.908 242.595,264.320 242.522,263.000 242.524 C 261.680 242.526,261.188 242.601,261.907 242.690 M258.267 248.267 C 257.817 248.717,257.957 259.126,258.418 259.411 C 259.231 259.914,260.000 258.719,260.000 256.951 C 260.000 255.276,260.782 254.491,261.337 255.610 C 261.449 255.836,261.494 255.790,261.439 255.510 C 261.099 253.799,259.640 254.814,259.522 256.844 C 259.450 258.069,259.193 259.005,258.900 259.102 C 258.516 259.228,258.400 258.001,258.400 253.833 L 258.400 248.400 260.000 248.400 C 261.067 248.400,261.867 248.667,262.400 249.200 C 262.840 249.640,263.200 249.830,263.200 249.623 C 263.200 248.502,259.146 247.388,258.267 248.267 M264.000 248.314 C 264.000 248.487,264.360 248.629,264.800 248.629 C 265.240 248.629,265.600 248.487,265.600 248.314 C 265.600 248.141,265.240 248.000,264.800 248.000 C 264.360 248.000,264.000 248.141,264.000 248.314 M267.200 248.800 C 266.760 249.240,266.414 249.915,266.432 250.300 C 266.451 250.741,266.612 250.592,266.865 249.899 C 267.544 248.042,270.203 247.852,271.074 249.599 C 271.770 250.995,271.037 251.582,270.078 250.397 C 269.594 249.799,269.088 249.557,268.662 249.721 C 267.537 250.153,267.918 251.686,269.574 253.385 C 272.192 256.072,272.017 258.744,269.189 259.247 L 267.800 259.495 269.038 259.547 C 269.831 259.581,270.545 259.303,271.024 258.774 C 271.720 258.005,271.788 257.997,272.021 258.659 C 272.158 259.050,272.302 257.037,272.341 254.185 C 272.400 249.854,272.522 248.918,273.082 248.500 C 273.707 248.034,273.706 248.000,273.064 248.000 C 272.684 248.000,272.237 248.370,272.070 248.823 L 271.765 249.646 271.021 248.823 C 270.071 247.774,268.237 247.763,267.200 248.800 M276.111 248.500 C 275.240 249.626,275.141 250.139,275.957 249.300 C 277.103 248.120,277.341 248.165,277.031 249.500 C 276.842 250.316,276.880 250.445,277.182 250.000 C 278.136 248.590,277.131 247.182,276.111 248.500 M281.067 248.267 C 280.920 248.413,280.837 250.978,280.882 253.967 L 280.964 259.400 281.182 254.000 L 281.400 248.600 283.600 248.365 L 285.800 248.130 283.567 248.065 C 282.338 248.029,281.213 248.120,281.067 248.267 M286.080 248.620 C 285.793 248.945,285.688 249.419,285.845 249.673 C 286.033 249.976,286.243 249.836,286.453 249.268 C 286.840 248.222,287.807 248.137,288.368 249.100 C 288.592 249.485,288.781 249.611,288.788 249.380 C 288.824 248.130,286.971 247.610,286.080 248.620 M290.400 248.324 C 290.400 248.534,290.770 248.804,291.223 248.922 C 291.746 249.059,291.989 248.967,291.890 248.669 C 291.698 248.093,290.400 247.793,290.400 248.324 M293.689 248.623 C 293.200 248.965,292.800 249.415,292.800 249.623 C 292.800 249.830,293.160 249.640,293.600 249.200 C 294.488 248.312,295.607 248.185,296.926 248.822 C 297.770 249.230,297.774 249.223,297.024 248.622 C 296.035 247.830,294.821 247.830,293.689 248.623 M298.667 248.267 C 298.520 248.413,298.397 248.998,298.394 249.567 C 298.389 250.381,298.305 250.473,298.000 250.000 C 297.706 249.545,297.611 249.714,297.606 250.700 C 297.598 252.327,297.116 252.371,296.522 250.800 C 296.012 249.449,294.376 249.057,294.432 250.300 C 294.450 250.718,294.544 250.799,294.665 250.500 C 295.030 249.595,295.914 249.978,296.351 251.230 C 296.701 252.236,296.934 252.411,297.626 252.192 C 298.304 251.976,298.445 252.070,298.331 252.661 C 298.221 253.227,297.894 253.371,296.934 253.274 C 295.390 253.119,294.893 253.798,295.808 254.809 C 296.755 255.855,296.304 257.773,295.181 257.479 C 294.751 257.367,294.500 257.438,294.623 257.637 C 295.017 258.275,295.958 258.027,296.420 257.163 C 296.909 256.250,296.622 254.400,295.992 254.400 C 295.777 254.400,295.600 254.220,295.600 254.000 C 295.600 253.780,296.050 253.600,296.600 253.600 C 297.550 253.600,297.600 253.715,297.606 255.900 C 297.610 257.422,297.734 258.007,297.973 257.630 C 298.244 257.202,298.376 257.350,298.507 258.230 C 298.602 258.874,298.707 257.024,298.740 254.120 C 298.792 249.552,298.894 248.785,299.500 248.432 C 300.093 248.087,300.103 248.022,299.567 248.012 C 299.218 248.005,298.813 248.120,298.667 248.267 M301.067 248.267 C 300.920 248.413,300.837 250.978,300.882 253.967 L 300.964 259.400 301.182 254.000 C 301.398 248.653,301.409 248.601,302.323 248.699 C 302.856 248.757,303.142 248.630,303.000 248.399 C 302.721 247.948,301.471 247.862,301.067 248.267 M305.067 248.267 C 304.920 248.413,304.797 249.448,304.794 250.567 C 304.789 252.083,304.683 252.447,304.376 252.000 C 304.047 251.519,303.988 251.581,304.083 252.316 C 304.308 254.072,305.001 253.198,305.200 250.908 C 305.335 249.355,305.564 248.633,305.900 248.700 C 306.175 248.755,306.400 248.620,306.400 248.400 C 306.400 247.950,305.476 247.858,305.067 248.267 M307.467 248.267 C 307.320 248.413,307.237 250.978,307.282 253.967 L 307.364 259.400 307.582 254.000 L 307.800 248.600 310.000 248.365 L 312.200 248.130 309.967 248.065 C 308.738 248.029,307.613 248.120,307.467 248.267 M273.657 250.500 C 273.626 251.545,273.715 252.400,273.856 252.400 C 274.212 252.400,275.174 251.086,275.175 250.600 C 275.175 250.380,274.957 250.560,274.690 251.000 C 274.247 251.731,274.184 251.662,273.959 250.200 L 273.714 248.600 273.657 250.500 M300.086 253.867 C 300.025 257.638,299.858 259.191,299.500 259.335 C 299.108 259.493,299.111 259.544,299.513 259.568 C 300.332 259.619,300.433 258.850,300.299 253.578 L 300.173 248.600 300.086 253.867 M265.754 254.000 C 265.754 256.750,265.818 257.875,265.896 256.500 C 265.974 255.125,265.974 252.875,265.896 251.500 C 265.818 250.125,265.754 251.250,265.754 254.000 M306.554 254.000 C 306.554 256.750,306.618 257.875,306.696 256.500 C 306.774 255.125,306.774 252.875,306.696 251.500 C 306.618 250.125,306.554 251.250,306.554 254.000 M259.600 251.349 C 259.600 252.341,259.788 253.269,260.018 253.411 C 260.508 253.714,261.605 252.903,261.588 252.251 C 261.581 252.003,261.392 252.115,261.168 252.500 C 260.488 253.667,260.000 253.290,260.000 251.600 C 260.000 250.063,260.808 249.343,261.337 250.410 C 261.449 250.636,261.494 250.590,261.439 250.310 C 261.123 248.719,259.600 249.579,259.600 251.349 M282.477 251.300 C 282.586 252.811,282.720 253.014,283.675 253.124 C 284.267 253.192,284.833 253.511,284.935 253.832 C 285.051 254.202,285.096 254.157,285.056 253.708 C 285.016 253.254,284.600 252.955,283.897 252.873 C 282.099 252.666,282.272 250.116,284.100 249.889 C 285.361 249.733,285.354 249.726,283.877 249.664 L 282.354 249.600 282.477 251.300 M308.877 251.300 C 308.986 252.811,309.120 253.014,310.075 253.124 C 310.667 253.192,311.233 253.511,311.335 253.832 C 311.451 254.202,311.496 254.157,311.456 253.708 C 311.416 253.254,311.000 252.955,310.297 252.873 C 308.499 252.666,308.672 250.116,310.500 249.889 C 311.761 249.733,311.754 249.726,310.277 249.664 L 308.754 249.600 308.877 251.300 M270.007 250.813 C 270.246 251.260,270.747 251.575,271.121 251.513 C 271.671 251.421,271.823 251.779,271.923 253.400 L 272.046 255.400 270.223 253.617 C 269.108 252.526,268.400 251.477,268.400 250.917 C 268.400 249.771,269.414 249.705,270.007 250.813 M292.542 253.800 C 292.541 255.780,292.608 256.640,292.692 255.712 C 292.776 254.784,292.777 253.164,292.695 252.112 C 292.612 251.060,292.543 251.820,292.542 253.800 M275.734 252.170 C 275.116 253.465,275.746 256.400,276.642 256.400 C 276.861 256.400,276.857 256.391,276.010 254.694 C 275.530 253.731,275.544 253.407,276.123 252.194 C 276.488 251.427,276.697 250.800,276.587 250.800 C 276.477 250.800,276.093 251.417,275.734 252.170 M266.425 251.687 C 266.411 252.064,267.210 253.285,268.200 254.400 C 269.190 255.515,270.000 256.606,270.000 256.826 C 270.000 257.497,268.742 257.752,268.366 257.158 C 268.101 256.741,268.011 256.729,268.006 257.113 C 267.997 257.865,269.118 258.166,269.805 257.596 C 270.673 256.875,270.568 256.565,268.813 254.660 C 267.940 253.713,267.051 252.502,266.838 251.969 C 266.569 251.295,266.443 251.209,266.425 251.687 M289.600 252.976 C 289.600 253.293,289.780 253.664,290.000 253.800 C 290.220 253.936,290.400 253.677,290.400 253.224 C 290.400 252.771,290.220 252.400,290.000 252.400 C 289.780 252.400,289.600 252.659,289.600 252.976 M262.667 253.067 C 262.286 253.447,262.337 254.714,262.742 254.964 C 262.930 255.080,263.065 254.641,263.042 253.989 C 263.019 253.336,262.985 252.801,262.967 252.801 C 262.948 252.800,262.813 252.920,262.667 253.067 M302.432 255.900 C 302.468 259.496,302.655 259.343,302.921 255.500 C 303.024 254.015,302.949 252.800,302.754 252.800 C 302.559 252.800,302.414 254.195,302.432 255.900 M282.477 256.100 C 282.593 257.699,282.682 257.812,283.968 258.000 C 286.264 258.336,285.972 259.190,283.533 259.272 L 281.400 259.344 283.331 259.495 C 285.478 259.663,286.415 259.157,286.372 257.851 C 286.344 257.021,286.335 257.020,286.000 257.800 C 285.811 258.240,285.644 258.375,285.628 258.100 C 285.611 257.801,285.038 257.600,284.200 257.600 C 282.431 257.600,281.987 255.012,283.700 254.682 C 284.456 254.537,284.420 254.500,283.477 254.454 C 282.396 254.402,282.359 254.464,282.477 256.100 M308.877 256.100 C 308.993 257.699,309.082 257.812,310.368 258.000 C 312.664 258.336,312.372 259.190,309.933 259.272 L 307.800 259.344 309.756 259.496 C 311.877 259.661,312.570 259.309,312.170 258.267 C 312.001 257.826,311.455 257.600,310.557 257.600 C 308.825 257.600,308.419 255.006,310.100 254.682 C 310.856 254.537,310.820 254.500,309.877 254.454 C 308.796 254.402,308.759 254.464,308.877 256.100 M273.600 257.167 C 273.600 258.248,273.416 259.225,273.190 259.337 C 272.964 259.449,273.010 259.495,273.290 259.439 C 273.586 259.380,273.884 258.511,274.000 257.369 C 274.178 255.614,274.253 255.487,274.688 256.200 C 274.956 256.640,275.181 256.811,275.188 256.580 C 275.202 256.090,274.385 255.200,273.920 255.200 C 273.744 255.200,273.600 256.085,273.600 257.167 M263.301 257.400 C 263.305 258.280,263.387 258.593,263.483 258.095 C 263.579 257.598,263.575 256.878,263.475 256.495 C 263.375 256.113,263.296 256.520,263.301 257.400 M289.612 257.726 C 289.588 258.378,290.440 259.600,290.914 259.594 C 291.249 259.590,291.265 259.496,290.966 259.294 C 290.727 259.132,290.327 258.640,290.078 258.200 C 289.828 257.760,289.619 257.547,289.612 257.726 M292.800 257.849 C 292.800 258.723,294.323 259.661,295.465 259.490 C 296.584 259.322,296.582 259.319,295.323 259.260 C 294.503 259.221,293.822 258.881,293.423 258.311 C 293.080 257.822,292.800 257.614,292.800 257.849 " stroke="none" fill="#617690" fill-rule="evenodd"></path><path id="path4" d="M191.600 129.200 C 190.256 129.631,191.708 129.631,193.400 129.200 C 194.478 128.926,194.498 128.894,193.600 128.887 C 193.050 128.883,192.150 129.024,191.600 129.200 M207.300 129.076 C 207.685 129.176,208.315 129.176,208.700 129.076 C 209.085 128.975,208.770 128.893,208.000 128.893 C 207.230 128.893,206.915 128.975,207.300 129.076 M187.000 130.000 C 185.981 130.438,187.032 130.438,188.400 130.000 C 189.204 129.743,189.243 129.677,188.600 129.668 C 188.160 129.662,187.440 129.811,187.000 130.000 M213.400 130.000 C 213.840 130.189,214.470 130.344,214.800 130.344 C 215.178 130.344,215.104 130.217,214.600 130.000 C 214.160 129.811,213.530 129.656,213.200 129.656 C 212.822 129.656,212.896 129.783,213.400 130.000 M198.500 135.094 C 199.545 135.176,201.255 135.176,202.300 135.094 C 203.345 135.012,202.490 134.944,200.400 134.944 C 198.310 134.944,197.455 135.012,198.500 135.094 M191.600 135.600 C 190.808 135.854,190.767 135.920,191.400 135.920 C 191.840 135.920,192.650 135.776,193.200 135.600 C 193.992 135.346,194.033 135.280,193.400 135.280 C 192.960 135.280,192.150 135.424,191.600 135.600 M213.000 136.400 C 213.440 136.589,214.070 136.744,214.400 136.744 C 214.778 136.744,214.704 136.617,214.200 136.400 C 213.760 136.211,213.130 136.056,212.800 136.056 C 212.422 136.056,212.496 136.183,213.000 136.400 M232.400 136.979 C 232.400 137.089,232.940 137.459,233.600 137.800 C 234.260 138.141,234.800 138.331,234.800 138.221 C 234.800 138.111,234.260 137.741,233.600 137.400 C 232.940 137.059,232.400 136.869,232.400 136.979 M236.400 139.298 C 236.830 139.743,243.200 143.969,243.200 143.810 C 243.200 143.573,238.416 140.216,237.200 139.599 C 236.650 139.320,236.290 139.185,236.400 139.298 M196.200 142.019 C 195.642 142.271,195.885 142.307,197.000 142.138 C 197.880 142.004,198.675 141.828,198.767 141.747 C 199.110 141.444,196.968 141.671,196.200 142.019 M201.233 141.747 C 201.325 141.828,202.120 142.004,203.000 142.138 C 204.115 142.307,204.358 142.271,203.800 142.019 C 203.032 141.671,200.890 141.444,201.233 141.747 M157.211 143.420 C 156.447 143.959,155.997 144.399,156.211 144.398 C 156.425 144.397,157.140 143.953,157.800 143.412 C 159.341 142.149,159.005 142.153,157.211 143.420 M230.400 143.164 C 230.950 143.614,231.580 143.983,231.800 143.985 C 232.228 143.988,231.505 143.434,230.200 142.760 C 229.669 142.485,229.736 142.621,230.400 143.164 M187.760 145.552 C 186.902 146.185,185.480 147.486,184.600 148.442 C 183.280 149.876,183.420 149.796,185.400 147.985 C 186.720 146.777,188.250 145.486,188.800 145.115 C 189.350 144.745,189.692 144.433,189.560 144.421 C 189.428 144.409,188.618 144.918,187.760 145.552 M211.200 145.164 C 211.750 145.614,212.380 145.983,212.600 145.985 C 213.028 145.988,212.305 145.434,211.000 144.760 C 210.469 144.485,210.536 144.621,211.200 145.164 M233.600 144.924 C 233.600 145.017,234.365 145.598,235.300 146.215 C 236.235 146.832,236.789 147.080,236.531 146.768 C 236.034 146.167,233.600 144.636,233.600 144.924 M214.783 148.100 C 215.764 149.145,216.619 150.000,216.683 150.000 C 216.984 150.000,216.666 149.641,214.900 147.983 L 213.000 146.200 214.783 148.100 M149.282 149.813 C 147.677 151.236,146.507 152.393,146.682 152.384 C 147.027 152.367,152.729 147.220,152.400 147.223 C 152.290 147.224,150.887 148.390,149.282 149.813 M248.600 148.253 C 249.260 148.913,252.320 151.866,255.400 154.815 C 259.277 158.528,259.892 159.034,257.400 156.460 C 255.420 154.415,252.360 151.462,250.600 149.898 C 248.840 148.333,247.940 147.594,248.600 148.253 M161.322 148.629 L 160.200 149.658 161.500 148.754 C 162.215 148.257,162.800 147.793,162.800 147.725 C 162.800 147.409,162.358 147.680,161.322 148.629 M242.400 151.318 C 242.400 151.420,243.247 152.197,244.281 153.045 C 245.316 153.893,246.034 154.378,245.876 154.123 C 245.540 153.579,242.400 151.045,242.400 151.318 M154.175 154.100 L 153.000 155.400 154.300 154.225 C 155.512 153.130,155.784 152.800,155.475 152.800 C 155.406 152.800,154.821 153.385,154.175 154.100 M143.200 155.400 C 142.228 156.390,141.523 157.200,141.633 157.200 C 141.743 157.200,142.628 156.390,143.600 155.400 C 144.572 154.410,145.277 153.600,145.167 153.600 C 145.057 153.600,144.172 154.410,143.200 155.400 M197.738 153.906 C 197.484 154.068,198.502 154.200,200.000 154.200 C 201.498 154.200,202.516 154.068,202.262 153.906 C 202.008 153.744,200.990 153.612,200.000 153.612 C 199.010 153.612,197.992 153.744,197.738 153.906 M195.000 155.137 C 194.340 155.540,193.530 156.213,193.200 156.631 C 192.802 157.135,193.020 157.056,193.846 156.396 C 194.532 155.848,195.432 155.186,195.846 154.924 C 196.261 154.661,196.510 154.437,196.400 154.425 C 196.290 154.413,195.660 154.733,195.000 155.137 M204.154 154.894 C 204.568 155.172,205.468 155.844,206.154 156.386 C 207.357 157.338,207.373 157.340,206.601 156.445 C 206.161 155.935,205.261 155.264,204.601 154.953 C 203.892 154.620,203.709 154.596,204.154 154.894 M250.900 159.008 C 255.136 163.374,255.119 163.038,251.300 166.991 L 248.200 170.200 251.500 167.009 C 255.571 163.074,255.584 163.344,251.100 158.992 L 247.400 155.400 250.900 159.008 M150.181 157.700 L 148.600 159.400 150.300 157.819 C 151.881 156.348,152.184 156.000,151.881 156.000 C 151.816 156.000,151.051 156.765,150.181 157.700 M179.429 157.829 C 179.281 158.415,179.238 158.972,179.332 159.066 C 179.427 159.160,179.624 158.758,179.771 158.171 C 179.919 157.585,179.962 157.028,179.868 156.934 C 179.773 156.840,179.576 157.242,179.429 157.829 M220.056 157.200 C 220.056 157.530,220.211 158.160,220.400 158.600 C 220.617 159.104,220.744 159.178,220.744 158.800 C 220.744 158.470,220.589 157.840,220.400 157.400 C 220.183 156.896,220.056 156.822,220.056 157.200 M138.434 160.700 C 137.538 161.745,136.804 162.759,136.803 162.954 C 136.801 163.149,137.191 162.789,137.668 162.154 C 138.145 161.519,138.989 160.505,139.543 159.900 C 140.097 159.295,140.440 158.800,140.306 158.800 C 140.172 158.800,139.329 159.655,138.434 160.700 M146.248 161.443 C 144.664 163.349,145.083 163.422,146.746 161.531 C 147.487 160.689,147.937 160.013,147.746 160.029 C 147.556 160.045,146.882 160.681,146.248 161.443 M261.650 161.400 C 262.228 162.060,262.798 162.870,262.919 163.200 C 263.107 163.717,263.141 163.713,263.168 163.175 C 263.186 162.831,262.615 162.021,261.900 161.375 L 260.600 160.200 261.650 161.400 M141.600 168.600 C 144.343 171.350,146.678 173.600,146.788 173.600 C 146.898 173.600,144.743 171.350,142.000 168.600 C 139.257 165.850,136.922 163.600,136.812 163.600 C 136.702 163.600,138.857 165.850,141.600 168.600 M147.600 165.800 C 148.795 167.010,149.863 168.000,149.973 168.000 C 150.083 168.000,149.195 167.010,148.000 165.800 C 146.805 164.590,145.737 163.600,145.627 163.600 C 145.517 163.600,146.405 164.590,147.600 165.800 M260.608 166.300 C 259.749 167.345,259.460 167.840,259.966 167.400 C 260.861 166.622,262.598 164.400,262.312 164.400 C 262.234 164.400,261.467 165.255,260.608 166.300 M220.446 166.467 C 220.421 166.834,220.296 167.464,220.170 167.867 C 219.952 168.562,219.963 168.563,220.397 167.887 C 220.648 167.496,220.773 166.866,220.673 166.487 C 220.511 165.868,220.488 165.866,220.446 166.467 M179.256 166.800 C 179.256 167.130,179.411 167.760,179.600 168.200 C 179.817 168.704,179.944 168.778,179.944 168.400 C 179.944 168.070,179.789 167.440,179.600 167.000 C 179.383 166.496,179.256 166.422,179.256 166.800 M150.400 168.125 C 150.400 168.194,150.985 168.779,151.700 169.425 L 153.000 170.600 151.825 169.300 C 150.730 168.088,150.400 167.816,150.400 168.125 M255.600 171.800 C 254.628 172.790,253.923 173.600,254.033 173.600 C 254.143 173.600,255.028 172.790,256.000 171.800 C 256.972 170.810,257.677 170.000,257.567 170.000 C 257.457 170.000,256.572 170.810,255.600 171.800 M246.175 171.700 L 245.000 173.000 246.300 171.825 C 247.015 171.179,247.600 170.594,247.600 170.525 C 247.600 170.216,247.270 170.488,246.175 171.700 M198.729 171.751 C 199.494 171.971,200.506 171.971,201.271 171.751 C 202.368 171.437,202.193 171.387,200.000 171.387 C 197.807 171.387,197.632 171.437,198.729 171.751 M181.400 172.800 C 181.741 173.460,182.111 174.000,182.221 174.000 C 182.331 174.000,182.141 173.460,181.800 172.800 C 181.459 172.140,181.089 171.600,180.979 171.600 C 180.869 171.600,181.059 172.140,181.400 172.800 M217.292 174.229 C 216.797 174.983,216.472 175.600,216.569 175.600 C 216.847 175.600,218.504 173.171,218.339 173.006 C 218.257 172.924,217.786 173.474,217.292 174.229 M243.375 174.100 L 242.200 175.400 243.500 174.225 C 244.215 173.579,244.800 172.994,244.800 172.925 C 244.800 172.616,244.470 172.888,243.375 174.100 M148.400 174.950 C 148.950 175.571,149.940 176.450,150.600 176.904 C 152.026 177.885,151.643 177.464,149.200 175.368 C 148.004 174.341,147.736 174.201,148.400 174.950 M250.981 176.100 L 249.400 177.800 251.100 176.219 C 252.681 174.748,252.984 174.400,252.681 174.400 C 252.616 174.400,251.851 175.165,250.981 176.100 M160.314 176.275 C 161.036 176.894,162.386 177.827,163.314 178.350 C 165.600 179.637,164.767 178.905,161.600 176.844 C 159.970 175.782,159.490 175.570,160.314 176.275 M185.200 177.800 C 185.946 178.570,186.647 179.200,186.757 179.200 C 186.867 179.200,186.346 178.570,185.600 177.800 C 184.854 177.030,184.153 176.400,184.043 176.400 C 183.933 176.400,184.454 177.030,185.200 177.800 M214.378 177.900 L 213.000 179.400 214.500 178.022 C 215.896 176.738,216.184 176.400,215.878 176.400 C 215.812 176.400,215.137 177.075,214.378 177.900 M237.985 178.029 L 236.600 179.258 238.100 178.181 C 239.426 177.230,239.857 176.800,239.485 176.800 C 239.422 176.800,238.747 177.353,237.985 178.029 M154.144 179.509 C 154.460 180.021,156.800 181.753,156.800 181.475 C 156.800 181.376,156.139 180.791,155.332 180.175 C 154.524 179.559,153.989 179.259,154.144 179.509 M245.400 180.635 L 244.200 181.666 245.500 180.806 C 246.215 180.333,246.800 179.868,246.800 179.773 C 246.800 179.473,246.631 179.578,245.400 180.635 M233.600 180.836 C 232.936 181.379,232.869 181.515,233.400 181.240 C 234.705 180.566,235.428 180.012,235.000 180.015 C 234.780 180.017,234.150 180.386,233.600 180.836 M242.385 182.829 L 241.000 184.058 242.500 182.981 C 243.826 182.030,244.257 181.600,243.885 181.600 C 243.822 181.600,243.147 182.153,242.385 182.829 M196.876 183.660 C 197.384 183.803,198.790 183.920,200.000 183.920 C 201.210 183.920,202.616 183.803,203.124 183.660 C 203.632 183.517,202.226 183.400,200.000 183.400 C 197.774 183.400,196.368 183.517,196.876 183.660 M239.096 184.950 C 237.175 186.131,236.638 186.689,238.200 185.881 C 239.454 185.233,241.145 184.026,240.800 184.025 C 240.690 184.025,239.923 184.441,239.096 184.950 M166.000 187.379 C 166.000 187.489,166.540 187.859,167.200 188.200 C 167.860 188.541,168.400 188.731,168.400 188.621 C 168.400 188.511,167.860 188.141,167.200 187.800 C 166.540 187.459,166.000 187.269,166.000 187.379 M212.600 189.200 C 212.096 189.417,212.022 189.544,212.400 189.544 C 212.730 189.544,213.360 189.389,213.800 189.200 C 214.304 188.983,214.378 188.856,214.000 188.856 C 213.670 188.856,213.040 189.011,212.600 189.200 M192.000 190.000 C 192.550 190.176,193.450 190.317,194.000 190.313 C 194.898 190.306,194.878 190.274,193.800 190.000 C 192.108 189.569,190.656 189.569,192.000 190.000 M207.400 190.000 C 205.737 190.423,207.374 190.442,209.400 190.023 C 210.745 189.745,210.809 189.692,209.800 189.693 C 209.140 189.694,208.060 189.832,207.400 190.000 M216.200 194.800 C 215.696 195.017,215.622 195.144,216.000 195.144 C 216.330 195.144,216.960 194.989,217.400 194.800 C 217.904 194.583,217.978 194.456,217.600 194.456 C 217.270 194.456,216.640 194.611,216.200 194.800 M213.200 195.600 C 212.376 195.864,212.341 195.926,213.000 195.954 C 213.440 195.973,214.070 195.813,214.400 195.600 C 215.101 195.147,214.614 195.147,213.200 195.600 M192.900 196.676 C 193.285 196.776,193.915 196.776,194.300 196.676 C 194.685 196.575,194.370 196.493,193.600 196.493 C 192.830 196.493,192.515 196.575,192.900 196.676 M97.467 197.467 C 97.097 197.837,97.129 241.909,97.500 242.138 C 97.665 242.240,97.800 232.171,97.800 219.762 C 97.800 207.353,97.785 197.200,97.767 197.200 C 97.748 197.200,97.613 197.320,97.467 197.467 M101.590 197.463 C 102.159 197.745,102.159 241.855,101.590 242.137 C 101.365 242.249,101.410 242.293,101.690 242.237 C 102.440 242.085,102.440 197.515,101.690 197.363 C 101.409 197.307,101.365 197.351,101.590 197.463 M120.984 197.700 C 120.495 198.975,121.006 242.135,121.510 242.237 C 121.791 242.294,121.836 242.249,121.610 242.137 C 120.961 241.815,121.050 197.727,121.700 197.465 C 122.092 197.307,122.089 197.256,121.687 197.232 C 121.406 197.214,121.089 197.425,120.984 197.700 M137.843 197.833 C 137.709 198.181,137.600 205.021,137.600 213.033 C 137.600 222.478,137.459 227.600,137.200 227.600 C 136.980 227.600,136.800 227.780,136.800 228.000 C 136.800 228.220,137.070 228.400,137.400 228.400 C 137.923 228.400,138.000 226.453,138.000 213.280 C 138.000 202.053,138.124 198.036,138.480 197.680 C 138.801 197.359,138.815 197.200,138.523 197.200 C 138.282 197.200,137.976 197.485,137.843 197.833 M141.590 197.463 C 141.863 197.599,142.000 205.083,142.000 219.800 C 142.000 234.517,141.863 242.001,141.590 242.137 C 141.364 242.249,141.410 242.293,141.690 242.237 C 142.440 242.085,142.440 197.515,141.690 197.363 C 141.410 197.307,141.364 197.351,141.590 197.463 M260.667 197.467 C 260.297 197.837,260.329 241.909,260.700 242.138 C 260.865 242.240,261.000 232.171,261.000 219.762 C 261.000 207.353,260.985 197.200,260.967 197.200 C 260.948 197.200,260.813 197.320,260.667 197.467 M264.693 197.489 C 265.054 197.745,265.217 200.442,265.304 207.619 L 265.422 217.400 265.411 207.433 C 265.402 198.919,265.313 197.442,264.800 197.303 C 264.363 197.184,264.334 197.234,264.693 197.489 M298.576 198.152 C 298.229 199.535,298.519 201.322,299.110 201.439 C 299.390 201.495,299.435 201.449,299.210 201.337 C 298.641 201.055,298.694 198.266,299.280 197.680 C 299.645 197.315,299.647 197.200,299.288 197.200 C 299.028 197.200,298.708 197.628,298.576 198.152 M319.800 199.400 C 319.800 200.568,319.935 201.440,320.100 201.338 C 320.265 201.236,320.400 200.364,320.400 199.400 C 320.400 198.436,320.265 197.564,320.100 197.462 C 319.935 197.360,319.800 198.232,319.800 199.400 M238.800 199.400 C 239.546 200.170,240.247 200.800,240.357 200.800 C 240.467 200.800,239.946 200.170,239.200 199.400 C 238.454 198.630,237.753 198.000,237.643 198.000 C 237.533 198.000,238.054 198.630,238.800 199.400 M224.406 199.794 C 223.663 200.561,223.132 201.250,223.227 201.325 C 223.322 201.400,224.006 200.773,224.746 199.931 C 226.429 198.018,226.212 197.931,224.406 199.794 M168.696 201.135 C 168.309 201.288,169.076 201.413,170.400 201.413 C 171.724 201.413,172.491 201.288,172.104 201.135 C 171.717 200.982,170.950 200.856,170.400 200.856 C 169.850 200.856,169.083 200.982,168.696 201.135 M230.540 201.106 C 230.286 201.268,231.073 201.410,232.288 201.422 C 233.620 201.435,234.199 201.327,233.748 201.150 C 232.759 200.762,231.115 200.739,230.540 201.106 M166.723 202.300 C 166.018 203.121,165.490 204.000,165.701 204.000 C 165.783 204.000,166.249 203.460,166.737 202.800 C 167.701 201.496,167.692 201.172,166.723 202.300 M174.034 202.647 C 174.565 203.333,175.080 203.823,175.179 203.735 C 175.277 203.647,174.843 203.086,174.213 202.488 L 173.069 201.400 174.034 202.647 M228.323 202.300 C 227.618 203.121,227.090 204.000,227.301 204.000 C 227.383 204.000,227.849 203.460,228.337 202.800 C 229.301 201.496,229.292 201.172,228.323 202.300 M226.652 205.700 C 226.320 206.938,226.391 233.235,226.728 234.085 C 226.878 234.462,227.000 228.027,227.000 219.785 C 227.000 211.543,226.976 204.800,226.947 204.800 C 226.917 204.800,226.785 205.205,226.652 205.700 M160.534 208.000 C 160.534 209.650,160.605 210.325,160.691 209.500 C 160.778 208.675,160.778 207.325,160.691 206.500 C 160.605 205.675,160.534 206.350,160.534 208.000 M175.752 207.400 L 175.800 209.000 178.000 209.000 L 180.200 209.000 180.242 207.497 L 180.284 205.993 180.118 207.397 C 179.953 208.787,179.933 208.800,178.000 208.800 L 176.048 208.800 175.876 207.300 L 175.705 205.800 175.752 207.400 M125.442 207.435 C 125.309 207.782,125.200 215.686,125.200 224.999 C 125.200 236.165,125.060 242.003,124.790 242.137 C 124.565 242.249,124.610 242.294,124.890 242.237 C 125.292 242.155,125.422 238.470,125.504 224.846 C 125.572 213.573,125.746 207.643,126.004 207.803 C 126.222 207.937,126.400 207.867,126.400 207.647 C 126.400 206.940,125.692 206.783,125.442 207.435 M242.074 209.137 L 242.000 211.674 239.799 211.537 C 238.589 211.462,237.599 211.535,237.599 211.700 C 237.600 211.865,238.596 212.000,239.813 212.000 C 242.379 212.000,242.509 211.829,242.297 208.752 L 242.148 206.600 242.074 209.137 M221.778 219.800 C 221.779 226.840,221.833 229.664,221.899 226.075 C 221.966 222.486,221.966 216.726,221.899 213.275 C 221.833 209.824,221.778 212.760,221.778 219.800 M169.000 215.600 C 170.083 216.700,171.060 217.600,171.170 217.600 C 171.280 217.600,170.483 216.700,169.400 215.600 C 168.317 214.500,167.340 213.600,167.230 213.600 C 167.120 213.600,167.917 214.500,169.000 215.600 M162.364 215.133 C 162.580 215.536,163.071 216.121,163.455 216.433 C 163.887 216.784,163.790 216.504,163.201 215.700 C 162.151 214.265,161.757 213.998,162.364 215.133 M233.060 218.300 C 232.958 218.465,234.162 218.551,235.737 218.491 C 240.882 218.294,241.476 218.136,237.324 218.067 C 235.082 218.030,233.163 218.135,233.060 218.300 M241.999 225.519 L 242.198 232.600 242.309 225.830 C 242.370 222.106,242.280 218.920,242.110 218.749 C 241.939 218.578,241.890 221.624,241.999 225.519 M175.373 221.200 C 178.100 224.271,178.748 224.874,177.306 223.000 C 176.628 222.120,175.477 220.860,174.747 220.200 C 173.976 219.503,174.239 219.923,175.373 221.200 M171.200 223.800 C 172.395 225.010,173.463 226.000,173.573 226.000 C 173.683 226.000,172.795 225.010,171.600 223.800 C 170.405 222.590,169.337 221.600,169.227 221.600 C 169.117 221.600,170.005 222.590,171.200 223.800 M270.784 221.894 C 274.431 221.982,276.280 222.182,276.514 222.512 C 276.764 222.863,276.815 222.831,276.698 222.400 C 276.563 221.904,275.566 221.797,270.967 221.781 L 265.400 221.763 270.784 221.894 M265.292 232.067 C 265.223 239.515,265.077 241.983,264.700 242.135 C 264.308 242.293,264.311 242.344,264.713 242.368 C 265.568 242.421,265.619 241.733,265.500 231.792 L 265.385 222.200 265.292 232.067 M160.285 229.049 C 159.907 229.427,159.972 233.586,160.372 234.600 C 160.545 235.040,160.599 234.005,160.491 232.300 L 160.295 229.200 162.314 229.200 C 163.425 229.200,164.425 229.385,164.537 229.610 C 164.649 229.836,164.694 229.790,164.639 229.510 C 164.528 228.957,160.774 228.559,160.285 229.049 M180.128 231.600 C 180.128 233.030,180.201 233.615,180.289 232.900 C 180.378 232.185,180.378 231.015,180.289 230.300 C 180.201 229.585,180.128 230.170,180.128 231.600 M175.324 231.800 C 175.326 233.120,175.401 233.612,175.490 232.893 C 175.579 232.174,175.577 231.094,175.486 230.493 C 175.395 229.892,175.322 230.480,175.324 231.800 M164.830 234.400 C 164.828 234.976,165.957 237.266,165.986 236.746 C 165.994 236.606,165.737 235.886,165.416 235.146 C 165.094 234.406,164.831 234.070,164.830 234.400 M173.999 236.500 C 173.410 237.304,173.313 237.584,173.745 237.233 C 174.401 236.700,175.393 235.200,175.089 235.200 C 175.013 235.200,174.522 235.785,173.999 236.500 M177.904 239.244 C 177.301 240.100,176.887 240.800,176.983 240.800 C 177.269 240.800,179.326 237.992,179.156 237.833 C 179.070 237.754,178.507 238.388,177.904 239.244 M225.087 240.409 C 225.795 241.151,226.442 241.678,226.525 241.579 C 226.608 241.481,226.029 240.873,225.238 240.229 L 223.800 239.058 225.087 240.409 M238.494 240.412 C 237.775 241.065,237.337 241.600,237.519 241.600 C 237.701 241.600,238.368 241.060,239.000 240.400 C 240.470 238.865,240.186 238.872,238.494 240.412 M169.107 242.690 C 169.826 242.779,170.906 242.777,171.507 242.686 C 172.108 242.595,171.520 242.522,170.200 242.524 C 168.880 242.526,168.388 242.601,169.107 242.690 M230.900 242.687 C 231.505 242.778,232.495 242.778,233.100 242.687 C 233.705 242.595,233.210 242.520,232.000 242.520 C 230.790 242.520,230.295 242.595,230.900 242.687 M258.652 248.716 C 258.544 248.890,259.073 248.961,259.828 248.873 C 260.583 248.785,261.200 248.642,261.200 248.556 C 261.200 248.255,258.845 248.403,258.652 248.716 M272.574 248.923 C 272.125 250.093,272.594 258.933,273.110 259.037 C 273.390 259.094,273.435 259.049,273.210 258.937 C 272.963 258.814,272.800 256.752,272.800 253.743 C 272.800 250.073,272.922 248.828,273.262 249.038 C 273.548 249.215,273.615 249.148,273.438 248.862 C 273.067 248.261,272.822 248.278,272.574 248.923 M281.485 248.648 C 281.104 249.030,281.118 258.702,281.500 258.939 C 281.665 259.042,281.745 256.802,281.678 253.963 L 281.556 248.800 283.478 248.853 C 285.344 248.904,285.360 248.914,284.000 249.200 L 282.600 249.495 284.133 249.547 C 285.198 249.584,285.616 249.447,285.502 249.100 C 285.324 248.559,281.953 248.180,281.485 248.648 M286.836 248.957 C 286.254 249.658,286.407 259.000,287.000 259.000 C 287.220 259.000,287.447 258.010,287.504 256.800 C 287.639 253.931,287.931 252.710,288.412 253.007 C 288.625 253.139,288.803 253.012,288.806 252.724 C 288.811 252.338,288.926 252.358,289.244 252.800 C 289.603 253.299,289.635 253.277,289.438 252.667 C 289.307 252.264,289.200 251.849,289.200 251.744 C 289.200 251.639,289.027 251.660,288.816 251.790 C 287.572 252.559,286.200 249.960,287.280 248.880 C 287.544 248.616,287.656 248.400,287.529 248.400 C 287.402 248.400,287.090 248.651,286.836 248.957 M298.974 248.923 C 298.525 250.093,298.994 258.933,299.510 259.037 C 299.791 259.094,299.836 259.049,299.610 258.937 C 299.363 258.814,299.200 256.752,299.200 253.743 C 299.200 250.073,299.322 248.828,299.662 249.038 C 299.948 249.215,300.015 249.148,299.838 248.862 C 299.467 248.261,299.222 248.278,298.974 248.923 M301.374 248.923 C 301.264 249.211,301.224 251.552,301.287 254.125 C 301.417 259.505,302.137 260.538,302.316 255.603 C 302.426 252.563,302.591 252.177,303.700 252.353 C 304.091 252.414,304.072 251.933,303.659 251.281 C 302.956 250.174,302.202 252.083,301.969 255.559 C 301.746 258.877,301.735 258.818,301.669 253.900 C 301.602 248.953,301.856 247.935,302.768 249.500 C 302.992 249.885,303.181 250.011,303.188 249.780 C 303.218 248.728,301.721 248.020,301.374 248.923 M307.885 248.648 C 307.504 249.030,307.518 258.702,307.900 258.939 C 308.065 259.042,308.145 256.802,308.078 253.963 L 307.956 248.800 309.878 248.853 C 311.744 248.904,311.760 248.914,310.400 249.200 L 309.000 249.495 310.533 249.547 C 311.598 249.584,312.016 249.447,311.902 249.100 C 311.724 248.559,308.353 248.180,307.885 248.648 M264.186 249.291 C 263.662 250.657,264.189 259.000,264.800 259.000 C 265.606 259.000,265.703 249.168,264.900 248.900 C 264.625 248.808,264.304 248.984,264.186 249.291 M275.691 249.761 C 275.245 250.739,275.928 251.050,276.688 250.214 C 276.860 250.026,276.752 250.016,276.448 250.192 C 276.068 250.412,275.959 250.338,276.098 249.956 C 276.209 249.650,276.502 249.445,276.750 249.500 C 276.998 249.555,277.200 249.420,277.200 249.200 C 277.200 248.416,276.121 248.817,275.691 249.761 M290.667 249.067 C 290.520 249.213,290.400 250.383,290.400 251.667 C 290.400 253.900,290.205 254.242,289.051 254.031 C 288.859 253.996,288.814 254.259,288.951 254.616 C 289.088 254.973,289.200 255.363,289.200 255.482 C 289.200 255.601,289.484 255.462,289.830 255.175 C 290.353 254.741,290.523 254.750,290.824 255.226 C 291.364 256.078,291.276 258.703,290.700 258.935 C 290.401 259.056,290.482 259.150,290.900 259.168 C 291.532 259.197,291.600 258.698,291.600 254.000 C 291.600 249.245,291.423 248.310,290.667 249.067 M296.610 249.216 C 296.777 249.487,296.470 249.546,295.734 249.385 L 294.600 249.138 295.600 249.691 C 296.150 249.995,296.660 250.097,296.734 249.919 C 296.808 249.741,297.078 249.721,297.334 249.874 C 297.590 250.028,297.553 249.849,297.251 249.477 C 296.649 248.735,296.200 248.552,296.610 249.216 M305.467 249.067 C 305.320 249.213,305.200 250.405,305.200 251.716 C 305.200 253.788,305.122 254.033,304.600 253.600 C 304.116 253.199,303.999 253.208,303.994 253.651 C 303.989 254.082,303.905 254.071,303.600 253.600 C 303.159 252.918,303.064 253.580,303.456 254.601 C 303.660 255.134,303.781 255.161,304.063 254.734 C 304.340 254.313,304.519 254.369,304.907 255.000 C 305.329 255.685,305.432 255.312,305.625 252.400 C 305.845 249.088,305.853 249.128,305.925 253.943 C 305.994 258.502,305.946 258.865,305.300 258.619 C 304.766 258.416,304.710 258.464,305.065 258.821 C 306.096 259.861,306.400 258.712,306.400 253.776 C 306.400 249.225,306.219 248.314,305.467 249.067 M265.200 254.000 C 265.200 256.933,265.044 258.800,264.800 258.800 C 264.556 258.800,264.400 256.933,264.400 254.000 C 264.400 251.067,264.556 249.200,264.800 249.200 C 265.044 249.200,265.200 251.067,265.200 254.000 M262.571 250.600 L 262.807 251.800 262.217 250.800 C 261.630 249.802,261.628 249.804,261.620 251.400 C 261.614 252.623,261.710 252.859,262.028 252.400 C 262.369 251.907,262.417 251.942,262.298 252.600 C 262.218 253.040,261.908 253.345,261.609 253.277 C 261.154 253.175,261.152 253.260,261.599 253.799 C 262.575 254.975,263.695 251.314,262.762 250.000 C 262.436 249.542,262.391 249.684,262.571 250.600 M293.067 249.867 C 292.651 250.282,292.766 256.928,293.200 257.600 C 293.482 258.036,293.589 258.057,293.594 257.676 C 293.597 257.388,293.735 257.236,293.900 257.338 C 294.065 257.440,294.200 255.840,294.200 253.782 C 294.200 249.288,293.697 249.303,293.483 253.802 C 293.336 256.898,293.332 256.882,293.365 253.300 C 293.384 251.265,293.385 249.600,293.367 249.600 C 293.348 249.600,293.213 249.720,293.067 249.867 M274.692 251.442 C 274.185 251.948,274.374 252.333,275.078 252.230 C 275.451 252.175,275.825 251.876,275.909 251.565 C 276.035 251.095,275.997 251.091,275.679 251.545 C 275.405 251.936,275.252 251.957,275.140 251.620 C 275.054 251.362,274.852 251.281,274.692 251.442 M268.353 252.482 C 268.637 252.858,268.765 253.332,268.639 253.537 C 268.512 253.742,268.722 254.155,269.104 254.455 C 269.734 254.948,269.748 254.933,269.251 254.300 C 268.568 253.430,269.306 253.363,270.025 254.230 C 270.452 254.745,270.454 254.920,270.032 255.180 C 269.667 255.405,269.646 255.581,269.957 255.774 C 270.201 255.924,270.400 255.846,270.400 255.600 C 270.400 255.354,270.580 255.264,270.800 255.400 C 271.807 256.023,271.038 254.810,269.519 253.381 C 268.594 252.512,268.070 252.107,268.353 252.482 M282.400 253.235 C 282.400 253.436,282.895 253.621,283.500 253.647 L 284.600 253.695 283.400 254.000 L 282.200 254.305 283.533 254.353 C 284.405 254.384,284.812 254.235,284.707 253.922 C 284.515 253.345,282.400 252.715,282.400 253.235 M308.800 253.235 C 308.800 253.436,309.295 253.621,309.900 253.647 L 311.000 253.695 309.800 254.000 L 308.600 254.305 309.933 254.353 C 310.805 254.384,311.212 254.235,311.107 253.922 C 310.915 253.345,308.800 252.715,308.800 253.235 M260.900 254.832 C 261.322 255.078,261.600 255.719,261.600 256.446 C 261.600 257.885,262.287 259.317,262.820 258.988 C 263.290 258.697,263.311 255.994,262.849 255.266 C 262.648 254.948,262.559 255.593,262.631 256.866 C 262.697 258.040,262.662 258.550,262.553 258.000 C 262.081 255.614,261.511 254.400,260.869 254.412 C 260.263 254.423,260.266 254.463,260.900 254.832 M275.200 254.803 C 275.200 255.083,274.859 255.152,274.300 254.986 C 273.417 254.722,273.415 254.729,274.200 255.331 C 274.640 255.668,275.060 255.776,275.134 255.570 C 275.208 255.364,275.433 255.297,275.634 255.421 C 275.835 255.545,276.000 255.467,276.000 255.247 C 276.000 255.027,275.820 254.736,275.600 254.600 C 275.380 254.464,275.200 254.556,275.200 254.803 M266.800 256.938 C 266.800 257.491,267.083 258.226,267.429 258.571 C 268.117 259.260,268.579 259.413,268.221 258.834 C 268.097 258.633,268.221 258.368,268.498 258.246 C 268.774 258.123,268.647 258.063,268.215 258.112 C 267.701 258.169,267.382 257.923,267.293 257.400 C 267.179 256.730,267.229 256.697,267.600 257.200 C 267.974 257.707,268.024 257.681,267.922 257.033 C 267.733 255.845,266.800 255.766,266.800 256.938 M276.000 256.424 C 276.000 256.657,275.822 256.737,275.605 256.603 C 275.368 256.457,275.317 256.640,275.478 257.059 C 275.645 257.493,275.808 257.576,275.908 257.277 C 275.996 257.012,276.231 256.895,276.430 257.018 C 276.628 257.141,276.684 256.962,276.553 256.621 C 276.278 255.906,276.000 255.806,276.000 256.424 M296.036 257.756 C 295.654 258.216,295.637 258.400,295.975 258.400 C 296.235 258.400,296.336 258.580,296.200 258.800 C 296.064 259.020,296.100 259.200,296.280 259.200 C 296.460 259.200,296.844 258.821,297.133 258.358 C 297.422 257.895,297.481 257.626,297.264 257.761 C 297.046 257.895,296.801 257.804,296.720 257.559 C 296.626 257.277,296.374 257.350,296.036 257.756 M276.812 257.924 C 276.805 258.224,276.587 258.328,276.300 258.167 C 276.025 258.013,276.111 258.217,276.490 258.620 C 277.319 259.499,277.847 259.158,277.249 258.130 C 276.998 257.698,276.819 257.614,276.812 257.924 M283.597 258.282 C 284.365 258.383,285.143 258.675,285.327 258.933 C 285.555 259.251,285.610 259.209,285.500 258.800 C 285.394 258.408,284.793 258.182,283.769 258.149 C 282.266 258.100,282.259 258.106,283.597 258.282 M309.997 258.282 C 310.765 258.383,311.543 258.675,311.727 258.933 C 311.955 259.251,312.010 259.209,311.900 258.800 C 311.794 258.408,311.193 258.182,310.169 258.149 C 308.666 258.100,308.659 258.106,309.997 258.282 " stroke="none" fill="#8c94ac" fill-rule="evenodd"></path></g></svg>